<?xml version="1.0" encoding="UTF-8" standalone="no"?>
<!-- Created with Inkscape (http://www.inkscape.org/) -->

<svg
   width="300"
   height="250"
   viewBox="0 0 79.375 66.145828"
   version="1.1"
   id="svg5"
   xml:space="preserve"
   xmlns:xlink="http://www.w3.org/1999/xlink"
   xmlns="http://www.w3.org/2000/svg"
   xmlns:svg="http://www.w3.org/2000/svg"><defs
     id="defs2"><linearGradient
       id="linearGradient22870"><stop
         style="stop-color:#ffffff;stop-opacity:0.2;"
         offset="0"
         id="stop22868" /></linearGradient><linearGradient
       id="linearGradient3182"><stop
         style="stop-color:#202020;stop-opacity:1;"
         offset="0"
         id="stop3180" /></linearGradient><linearGradient
       id="linearGradient3176"><stop
         style="stop-color:#9a9a9a;stop-opacity:0.10588235;"
         offset="0"
         id="stop3174" /></linearGradient><linearGradient
       id="cupblack"><stop
         style="stop-color:#302e47;stop-opacity:1;"
         offset="0"
         id="stop3168" /></linearGradient><clipPath
       id="clip0_200_4114"><rect
         width="172"
         height="64"
         fill="#ffffff"
         transform="translate(0.765625)"
         id="rect2563"
         x="0"
         y="0"
         d="m -0.1,0 h 172 v 64 h -172 z" /></clipPath><linearGradient
       xlink:href="#cupblack"
       id="linearGradient3172"
       x1="50.873341"
       y1="87.95356"
       x2="128.25813"
       y2="87.95356"
       gradientUnits="userSpaceOnUse" /><linearGradient
       xlink:href="#cupblack"
       id="linearGradient3178"
       x1="67.693764"
       y1="129.87032"
       x2="112.26023"
       y2="129.87032"
       gradientUnits="userSpaceOnUse"
       gradientTransform="matrix(0.62091084,0,0,0.62091084,-19.55536,-19.530292)" /><linearGradient
       xlink:href="#cupblack"
       id="linearGradient3184"
       x1="110.50747"
       y1="61.030209"
       x2="152.69203"
       y2="61.030209"
       gradientUnits="userSpaceOnUse"
       gradientTransform="matrix(0.6232408,0,0,0.57181737,-22.847017,-13.073342)" /><linearGradient
       xlink:href="#linearGradient22870"
       id="linearGradient3737"
       gradientUnits="userSpaceOnUse"
       x1="50.873341"
       y1="87.95356"
       x2="128.25813"
       y2="87.95356"
       gradientTransform="matrix(0.62091084,0,0,0.62091084,-17.83246,-16.951945)" /><clipPath
       id="clip0_200_4114-9"><rect
         width="172"
         height="64"
         fill="#ffffff"
         transform="translate(0.765625)"
         id="rect16254"
         x="0"
         y="0" /></clipPath><linearGradient
       xlink:href="#cupblack"
       id="linearGradient16915"
       gradientUnits="userSpaceOnUse"
       gradientTransform="matrix(0.6232408,0,0,0.57181737,-22.847017,-13.073342)"
       x1="110.50747"
       y1="61.030209"
       x2="152.69203"
       y2="61.030209" /><linearGradient
       xlink:href="#cupblack"
       id="linearGradient16917"
       gradientUnits="userSpaceOnUse"
       x1="50.873341"
       y1="87.95356"
       x2="128.25813"
       y2="87.95356" /><linearGradient
       xlink:href="#cupblack"
       id="linearGradient16919"
       gradientUnits="userSpaceOnUse"
       gradientTransform="matrix(0.62091084,0,0,0.62091084,-19.55536,-19.530292)"
       x1="67.693764"
       y1="129.87032"
       x2="112.26023"
       y2="129.87032" /><linearGradient
       xlink:href="#linearGradient3176"
       id="linearGradient16921"
       gradientUnits="userSpaceOnUse"
       gradientTransform="matrix(0.62091084,0,0,0.62091084,-17.83246,-16.951945)"
       x1="50.873341"
       y1="87.95356"
       x2="128.25813"
       y2="87.95356" /></defs><ellipse
     style="opacity:0.998192;fill:none;fill-opacity:1;stroke:url(#linearGradient16915);stroke-width:3.58185;stroke-linecap:round;stroke-linejoin:round;stroke-dasharray:none;stroke-opacity:1;stop-color:#000000"
     id="path1434"
     cx="59.171356"
     cy="21.824791"
     rx="11.275847"
     ry="13.008673"
     transform="matrix(0.98688811,0.16140589,-0.19284755,0.98122873,0,0)" /><path
     style="fill:url(#linearGradient16917);fill-opacity:1;stroke:none;stroke-width:0.264583px;stroke-linecap:butt;stroke-linejoin:miter;stroke-opacity:1"
     d="M 50.873342,46.932447 67.353436,129.69119 H 89.565742 V 46.215923 Z m 77.384798,0 -16.48009,82.758743 H 89.565742 V 46.215923 Z"
     id="path1149"
     class="UnoptimicedTransforms"
     transform="matrix(0.62091084,0,0,0.62091084,-19.300007,-19.530292)" /><ellipse
     style="opacity:0.998192;fill:#1b1a28;fill-opacity:1;stroke:#262438;stroke-width:0.620911;stroke-linecap:round;stroke-linejoin:round;stroke-dasharray:none;stroke-opacity:1;stop-color:#000000"
     id="path1147"
     cx="36.312294"
     cy="8.6037178"
     rx="24.021013"
     ry="7.6768198" /><ellipse
     style="opacity:0.998192;fill:url(#linearGradient16919);fill-opacity:1;stroke:none;stroke-width:0.0398139;stroke-linecap:round;stroke-linejoin:round;stroke-opacity:1;stop-color:#000000"
     id="path1147-8"
     cx="36.312294"
     cy="61.107605"
     rx="13.8359"
     ry="4.421783" /><g
     clip-path="url(#clip0_200_4114)"
     id="g2561"
     transform="matrix(0.13821437,0,0,0.13821437,24.479956,24.252745)"
     class="UnoptimicedTransforms"><path
       d="M 165.78,64 H 7.55125 C 3.75713,64 0.665625,60.9291 0.665625,57.1603 V 6.90949 C 0.665625,3.07088 3.75713,0 7.55125,0 H 165.78 c 3.794,0 6.886,3.07088 6.886,6.8397 v 50.2508 c 0,3.8386 -3.092,6.9095 -6.886,6.9095 z"
       fill="#2600ff"
       id="path2531"
       class="UnoptimicedTransforms" /><path
       d="m 51.0431,42.9225 c 1.4052,0 2.3889,0.349 3.0213,1.0469 0.6323,0.698 0.9134,1.9542 0.9134,3.6991 0,1.7448 -0.3514,3.001 -1.054,3.699 -0.7026,0.6979 -1.9673,1.0469 -3.7941,1.0469 -0.3513,0 -1.616,-0.0698 -2.5294,-0.1396 -0.6323,-0.0698 -1.1944,-0.5584 -1.1944,-1.2563 v -9.9106 c 0,-0.6281 0.4918,-1.0469 1.0539,-1.0469 0.6323,0 1.0539,0.4886 1.0539,1.0469 v 2.373 c 0.9837,-0.4188 1.8268,-0.5584 2.5294,-0.5584 z m -0.9836,7.6772 c 1.0539,0 1.7565,-0.2093 2.1781,-0.6979 0.3513,-0.4885 0.562,-1.2563 0.562,-2.3031 0,-1.0469 -0.1405,-1.8844 -0.4215,-2.3032 -0.2811,-0.4188 -0.7729,-0.6979 -1.4755,-0.6979 -0.6324,0 -1.2647,0.0698 -1.9673,0.2791 l -0.3513,0.0698 v 5.5137 c 0.7026,0.1396 1.1944,0.1395 1.4755,0.1395 z"
       fill="#ffffff"
       id="path2533" /><path
       d="m 57.5777,43.1318 c 0.4919,0 0.8432,0.2792 0.9837,0.7678 l 1.897,6.4907 c 0.0703,0.2792 0.5621,0.2792 0.6324,0 l 1.8971,-6.4907 c 0.1405,-0.4188 0.5621,-0.7678 0.9836,-0.7678 0.7026,0 1.1945,0.6282 0.9837,1.3261 l -3.232,10.9575 c -0.1406,0.4187 -0.4919,0.6979 -0.9837,0.6979 -0.7026,0 -1.1944,-0.6979 -0.9837,-1.3261 l 0.7729,-2.3729 h -0.4216 c -0.7728,0 -1.4754,-0.4886 -1.6862,-1.2563 l -1.9673,-6.7699 c -0.0703,-0.6281 0.4215,-1.2563 1.1241,-1.2563 z"
       fill="#ffffff"
       id="path2535" /><path
       d="m 88.7733,50.53 0.5621,-0.0698 v 0.4188 c 0,0.6281 -0.4216,1.1166 -1.054,1.1864 -1.1241,0.1396 -2.1078,0.2792 -3.0212,0.2792 -1.4755,0 -2.5294,-0.349 -3.232,-1.1167 -0.6324,-0.7677 -0.9837,-1.9542 -0.9837,-3.5594 0,-3.2105 1.4755,-4.8157 4.3562,-4.8157 2.8105,0 4.2157,1.3958 4.2157,4.1876 -0.0702,0.8375 -0.7729,1.3958 -1.5457,1.3958 h -4.7778 c 0,0.7677 0.2108,1.3261 0.5621,1.675 0.3513,0.349 0.9836,0.5584 1.9673,0.5584 0.9837,0 1.9673,-0.0698 2.951,-0.1396 z m -1.1945,-3.5594 c 0,-0.9073 -0.1405,-1.5355 -0.4918,-1.8844 -0.281,-0.349 -0.8431,-0.5584 -1.616,-0.5584 -0.7729,0 -1.2647,0.2094 -1.616,0.5584 -0.3513,0.3489 -0.4918,0.9771 -0.5621,1.8844 z"
       fill="#ffffff"
       id="path2537" /><path
       d="m 99.7338,50.53 v 0.4886 c 0,0.5583 -0.4215,1.0469 -0.9836,1.1167 -1.1242,0.1395 -2.1781,0.2791 -3.0915,0.2791 -1.4755,0 -2.5295,-0.3489 -3.2321,-1.1167 -0.6323,-0.7677 -0.9836,-1.9542 -0.9836,-3.5594 0,-3.2105 1.4755,-4.8157 4.3562,-4.8157 2.8104,0 4.2158,1.3959 4.2158,4.1876 -0.07,0.8375 -0.773,1.3958 -1.5459,1.3958 h -4.7778 c 0,0.7678 0.2108,1.3261 0.5621,1.6751 0.3513,0.3489 0.9837,0.5583 1.9673,0.5583 0.9134,-0.0698 3.5131,-0.2094 3.5131,-0.2094 z M 97.907,46.9706 c 0,-0.9073 -0.1405,-1.5355 -0.4918,-1.8844 -0.2811,-0.349 -0.8431,-0.5584 -1.616,-0.5584 -0.7729,0 -1.2647,0.2094 -1.616,0.5584 -0.3513,0.3489 -0.4919,0.9771 -0.5621,1.8844 z"
       fill="#ffffff"
       id="path2539" /><path
       d="m 109.782,45.9237 v 4.1178 c 0,0.2791 0.07,0.4885 0.211,0.5583 0.14,0.0698 0.351,0.2094 0.632,0.2792 v 0.4187 c 0,0.6282 -0.562,1.1167 -1.194,0.9771 -0.633,-0.0698 -1.125,-0.2791 -1.476,-0.5583 -1.054,0.4188 -2.178,0.6979 -3.232,0.6979 -1.967,0 -3.021,-0.9771 -3.021,-2.8615 0,-0.9073 0.281,-1.6052 0.843,-2.024 0.562,-0.4187 1.405,-0.6281 2.529,-0.7677 l 2.6,-0.2094 v -0.6281 c 0,-0.4886 -0.141,-0.8375 -0.351,-1.0469 -0.211,-0.2094 -0.562,-0.2792 -1.054,-0.2792 -0.843,0 -1.968,0.0698 -3.232,0.1396 l -0.633,0.0698 v -0.5583 c 0,-0.4886 0.281,-0.9073 0.773,-1.0469 1.124,-0.2094 2.178,-0.2792 3.162,-0.2792 1.194,0 2.108,0.2094 2.67,0.6979 0.492,0.4886 0.773,1.2563 0.773,2.3032 z m -4.497,2.2334 c -0.913,0.0698 -1.405,0.5583 -1.405,1.3958 0,0.8375 0.421,1.2563 1.194,1.2563 0.703,0 1.406,-0.0698 2.108,-0.2792 l 0.351,-0.1396 v -2.4427 z"
       fill="#ffffff"
       id="path2541" /><path
       d="m 113.787,52.4144 c -0.632,0 -1.124,-0.4885 -1.124,-1.0469 V 44.458 c 0,-0.7677 0.281,-1.326 1.054,-1.326 0.913,0 1.124,0.5583 1.124,0.5583 0.983,-0.4885 1.827,-0.7677 2.599,-0.7677 1.195,0 2.038,0.2792 2.53,0.9073 1.194,-0.6281 2.459,-0.9073 3.654,-0.9073 1.194,0 2.037,0.349 2.529,0.9771 0.492,0.6979 0.773,1.8146 0.773,3.4199 v 4.0479 c 0,0.6282 -0.492,1.0469 -1.054,1.0469 -0.632,0 -1.054,-0.4885 -1.054,-1.0469 v -3.9782 c 0,-0.9771 -0.141,-1.675 -0.351,-2.0937 -0.211,-0.4188 -0.703,-0.6282 -1.406,-0.6282 -0.632,0 -1.264,0.1396 -1.967,0.349 l -0.351,0.1396 c 0.14,0.2094 0.14,1.0469 0.14,2.3031 v 3.9084 c 0,0.6282 -0.421,1.0469 -1.054,1.0469 -0.632,0 -1.124,-0.4885 -1.124,-1.0469 v -3.8386 c 0,-1.0469 -0.14,-1.8146 -0.351,-2.2333 -0.211,-0.4188 -0.703,-0.6282 -1.405,-0.6282 -0.703,0 -1.265,0.1396 -1.897,0.349 l -0.281,0.1396 v 6.2115 c 0.14,0.6282 -0.352,1.0469 -0.984,1.0469 z"
       fill="#ffffff"
       id="path2543" /><path
       d="m 71.5598,41.3174 c 0.5621,0 0.9837,0.3489 1.054,0.7677 l 2.3186,8.1657 c 0.1405,0.349 0.6323,0.349 0.7729,0 l 2.1781,-8.2355 c 0.1405,-0.4886 0.562,-0.7677 1.0539,-0.7677 0.7026,0 1.1944,0.6979 1.0539,1.326 l -2.2484,8.5147 c -0.2108,0.7678 -0.9134,1.2563 -1.6862,1.2563 h -1.2647 c -0.7729,0 -1.4755,-0.4885 -1.6863,-1.2563 l -2.4592,-8.5147 c -0.281,-0.5583 0.2108,-1.2562 0.9134,-1.2562 z"
       fill="#ffffff"
       id="path2545" /><path
       d="m 72.1218,30.1505 c -0.9837,0 -1.7565,0.7677 -1.7565,1.8146 0,0.5583 0.2107,1.0469 0.4918,1.3959 0.3513,0.3489 0.7729,0.4885 1.1944,0.4885 h 9.134 c 3.4429,0 5.9723,-2.4427 5.9723,-5.7928 0,-3.3501 -2.5997,-6.0022 -5.902,-6.0022 h -5.6209 c -1.4755,0 -2.4592,-0.8375 -2.4592,-2.0938 0,-1.326 0.9837,-2.1635 2.4592,-2.1635 h 9.0637 c 1.1242,0 1.7566,-0.9771 1.7566,-1.8844 0,-1.0469 -0.7729,-1.8147 -1.7566,-1.8147 h -9.134 c -3.4428,0 -5.9722,2.5126 -5.9722,5.8626 0,3.2803 2.5997,5.7928 5.9722,5.7928 h 5.5507 c 1.4755,0 2.4591,0.9073 2.4591,2.3032 0,1.3261 -0.9134,2.1636 -2.4591,2.1636 h -8.9935 z"
       fill="#ffffff"
       id="path2547" /><path
       d="m 107.956,15.8432 c 0,0.9771 -0.914,1.8146 -1.968,1.8146 h -3.372 -2.108 v 14.2377 c 0,1.0469 -0.9135,1.9542 -1.9674,1.9542 -1.0539,0 -1.9673,-0.9073 -1.9673,-1.9542 V 17.6578 h -1.7565 -3.7239 c -1.0539,0 -1.9673,-0.8375 -1.9673,-1.8146 0,-0.9771 0.9134,-1.8146 1.9673,-1.8146 h 3.7239 3.1617 0.2108 4.3567 3.372 c 1.195,0 2.038,0.8375 2.038,1.8146 z"
       fill="#ffffff"
       id="path2549" /><path
       d="m 127.909,32.1049 c 0,0.9771 -0.913,1.8146 -1.967,1.8146 h -3.443 -3.302 -0.352 -2.389 -0.351 -0.913 c 0,0 -1.335,0 -1.827,-0.2094 -0.351,-0.1396 -0.632,-0.2093 -0.913,-0.4187 -0.984,-0.6282 -1.617,-1.7448 -1.687,-3.0011 v -0.1396 -0.4188 -0.7677 -2.1636 -1.1864 c 0,-1.3261 0.633,-2.4428 1.687,-3.0709 0.281,-0.2094 0.632,-0.2792 0.913,-0.4188 0.492,-0.2093 1.827,-0.1396 1.827,-0.1396 h 0.913 0.351 2.389 0.352 3.302 3.443 c 1.054,0 1.967,0.8376 1.967,1.8147 0,0.9771 -0.913,1.8146 -1.967,1.8146 h -3.443 -3.302 -0.352 -2.389 -0.702 c -0.703,0 -1.265,0.2093 -1.265,1.0469 v 2.5823 c 0,0.6979 0.703,1.0469 1.265,1.0469 h 0.702 2.389 0.352 3.302 3.443 c 1.054,0 1.967,0.7677 1.967,1.8146 z m -2.038,-18.0763 h -3.372 -3.302 -0.352 -2.389 -3.723 c -1.054,0 -1.968,0.8375 -1.968,1.8146 0,0.9771 0.914,1.8146 1.968,1.8146 h 3.723 2.389 0.352 3.372 3.373 c 1.054,0 1.967,-0.8375 1.967,-1.8146 -0.07,-0.9771 -0.913,-1.8146 -2.038,-1.8146 z"
       fill="#ffffff"
       id="path2551" /><path
       d="m 27.9977,15.9828 v 6.5605 2.7917 6.5605 c 0,1.0469 -0.9134,1.9542 -1.9673,1.9542 -1.0539,0 -1.9673,-0.9073 -1.9673,-1.9542 V 25.335 22.5433 15.9828 c 0,-1.0469 0.9134,-1.9542 1.9673,-1.9542 1.0539,0 1.9673,0.9073 1.9673,1.9542 z"
       fill="#ffffff"
       id="path2553" /><path
       d="m 34.6019,23.939 7.518,-6.4209 c 0.7026,-0.6281 0.9837,-1.675 0.4918,-2.5125 -0.6323,-1.1167 -2.1078,-1.3261 -3.0212,-0.5584 l -10.3987,8.9335 c -0.3513,0.2792 -0.3513,0.7677 0,1.0469 l 10.3284,8.8637 c 0.7026,0.6281 1.8268,0.6979 2.5294,0.1396 0.9837,-0.7678 0.9837,-2.2334 0.0703,-3.0011 z"
       fill="#ffffff"
       id="path2555" /><path
       d="m 149.34,15.9828 v 14.2377 c 0,2.2334 -1.054,3.699 -3.022,3.699 -2.107,0 -2.88,-1.2563 -3.724,-2.4427 l -7.939,-12.5627 v 13.0512 c 0,1.0469 -0.913,1.8844 -1.967,1.8844 -1.054,0 -1.968,-0.8375 -1.968,-1.9542 V 17.7276 c 0,-2.0938 1.476,-3.699 3.373,-3.699 1.335,0 2.529,0.9771 3.232,1.9542 0.07,0.1395 8.15,12.9116 8.15,12.9116 V 15.913 c 0,-0.698 0.703,-1.8146 1.968,-1.8146 0.983,0 1.897,0.8375 1.897,1.8844 z"
       fill="#ffffff"
       id="path2557" /><path
       d="M 67.2735,30.7788 60.5284,16.6807 c -0.6323,-1.675 -1.8971,-2.6521 -3.8644,-2.6521 -1.616,0 -3.0212,0.8375 -3.7941,2.6521 l -6.6748,13.819 c -1.335,2.4427 0.9134,3.35 1.5457,3.2802 0.7729,0 1.4755,-0.4885 1.8268,-1.2562 0.2811,-0.6282 1.7566,-3.6991 1.7566,-3.6991 h 5.3398 c 1.0539,0 1.8268,-0.9073 1.8268,-1.9542 0,-1.0469 -0.8431,-1.9542 -1.8268,-1.9542 h -3.513 l 3.0915,-6.2813 v -0.0698 c 0.0702,-0.2094 0.2107,-0.349 0.281,-0.4188 0.0703,0 0.2108,0 0.2811,0 0.1405,0.0698 0.281,0.2792 0.3513,0.4886 l 6.6748,13.8888 c 0.281,0.5583 1.4052,1.8146 3.0212,0.8375 0.7729,-0.4886 0.9837,-1.6053 0.4216,-2.5824 z"
       fill="#ffffff"
       id="path2559" /></g><path
     style="fill:url(#linearGradient16921);fill-opacity:1;stroke:none;stroke-width:0.164282px;stroke-linecap:butt;stroke-linejoin:miter;stroke-opacity:1"
     d="M 13.755349,12.188919 23.32067,61.57267 c 0.648788,3.349557 13.903086,3.114291 13.903086,3.114291 C 42.673714,65.90775 36.36221,31.19546 13.755349,12.188919 Z"
     id="path1149-5" /><path
     id="ellipse3749"
     style="opacity:0.998192;fill:#555555;fill-opacity:1;stroke:#262438;stroke-width:0.620911;stroke-linecap:round;stroke-linejoin:round;stroke-dasharray:none;stroke-opacity:1;stop-color:#000000"
     d="m 35.484989,1.9190249 c -5.150634,0.094856 -10.303811,0.5744157 -15.280036,2.027917 -2.036031,0.6286775 -4.176634,1.387373 -5.860295,2.8285407 -0.679848,0.5665565 -1.289908,1.4741959 -0.952423,2.3896977 0.674694,1.4290297 2.161031,2.2149637 3.524074,2.8680157 3.490113,1.601605 7.265318,2.27082 11.025336,2.769858 6.261845,0.719265 12.610802,0.656011 18.850805,-0.296244 3.376302,-0.553059 6.735806,-1.317253 9.784457,-2.902073 1.054722,-0.615086 2.210728,-1.328226 2.679759,-2.5137073 C 59.524529,8.308391 59.080025,7.5323897 58.525392,7.0075827 57.180128,5.6596858 55.345395,4.9713354 53.592775,4.3242012 49.64348,2.9583855 45.449519,2.409778 41.283652,2.0842623 39.370114,1.9519337 37.418397,1.9042904 35.484989,1.9190249 Z" /><ellipse
     style="opacity:0.998192;fill:none;fill-opacity:1;stroke:url(#linearGradient3184);stroke-width:3.58185;stroke-linecap:round;stroke-linejoin:round;stroke-dasharray:none;stroke-opacity:1;stop-color:#000000"
     id="ellipse16855"
     cx="59.171356"
     cy="21.824791"
     rx="11.275847"
     ry="13.008673"
     transform="matrix(0.98688811,0.16140589,-0.19284755,0.98122873,0,0)" /><path
     style="fill:url(#linearGradient3172);fill-opacity:1;stroke:none;stroke-width:0.264583px;stroke-linecap:butt;stroke-linejoin:miter;stroke-opacity:1"
     d="M 50.873342,46.932447 67.353436,129.69119 H 89.565742 V 46.215923 Z m 77.384798,0 -16.48009,82.758743 H 89.565742 V 46.215923 Z"
     id="path16857"
     class="UnoptimicedTransforms"
     transform="matrix(0.62091084,0,0,0.62091084,-19.300007,-19.530292)" /><ellipse
     style="opacity:0.998192;fill:#1b1a28;fill-opacity:1;stroke:#262438;stroke-width:0.620911;stroke-linecap:round;stroke-linejoin:round;stroke-dasharray:none;stroke-opacity:1;stop-color:#000000"
     id="ellipse16859"
     cx="36.312294"
     cy="8.6037178"
     rx="24.021013"
     ry="7.6768198" /><ellipse
     style="opacity:0.998192;fill:url(#linearGradient3178);fill-opacity:1;stroke:none;stroke-width:0.0398139;stroke-linecap:round;stroke-linejoin:round;stroke-opacity:1;stop-color:#000000"
     id="ellipse16861"
     cx="36.312294"
     cy="61.107605"
     rx="13.8359"
     ry="4.421783" /><g
     clip-path="url(#clip0_200_4114)"
     id="g16893"
     transform="matrix(0.13821437,0,0,0.13821437,24.479956,24.252745)"
     class="UnoptimicedTransforms"><path
       d="M 165.78,64 H 7.55125 C 3.75713,64 0.665625,60.9291 0.665625,57.1603 V 6.90949 C 0.665625,3.07088 3.75713,0 7.55125,0 H 165.78 c 3.794,0 6.886,3.07088 6.886,6.8397 v 50.2508 c 0,3.8386 -3.092,6.9095 -6.886,6.9095 z"
       fill="#2600ff"
       id="path16863"
       class="UnoptimicedTransforms" /><path
       d="m 51.0431,42.9225 c 1.4052,0 2.3889,0.349 3.0213,1.0469 0.6323,0.698 0.9134,1.9542 0.9134,3.6991 0,1.7448 -0.3514,3.001 -1.054,3.699 -0.7026,0.6979 -1.9673,1.0469 -3.7941,1.0469 -0.3513,0 -1.616,-0.0698 -2.5294,-0.1396 -0.6323,-0.0698 -1.1944,-0.5584 -1.1944,-1.2563 v -9.9106 c 0,-0.6281 0.4918,-1.0469 1.0539,-1.0469 0.6323,0 1.0539,0.4886 1.0539,1.0469 v 2.373 c 0.9837,-0.4188 1.8268,-0.5584 2.5294,-0.5584 z m -0.9836,7.6772 c 1.0539,0 1.7565,-0.2093 2.1781,-0.6979 0.3513,-0.4885 0.562,-1.2563 0.562,-2.3031 0,-1.0469 -0.1405,-1.8844 -0.4215,-2.3032 -0.2811,-0.4188 -0.7729,-0.6979 -1.4755,-0.6979 -0.6324,0 -1.2647,0.0698 -1.9673,0.2791 l -0.3513,0.0698 v 5.5137 c 0.7026,0.1396 1.1944,0.1395 1.4755,0.1395 z"
       fill="#ffffff"
       id="path16865" /><path
       d="m 57.5777,43.1318 c 0.4919,0 0.8432,0.2792 0.9837,0.7678 l 1.897,6.4907 c 0.0703,0.2792 0.5621,0.2792 0.6324,0 l 1.8971,-6.4907 c 0.1405,-0.4188 0.5621,-0.7678 0.9836,-0.7678 0.7026,0 1.1945,0.6282 0.9837,1.3261 l -3.232,10.9575 c -0.1406,0.4187 -0.4919,0.6979 -0.9837,0.6979 -0.7026,0 -1.1944,-0.6979 -0.9837,-1.3261 l 0.7729,-2.3729 h -0.4216 c -0.7728,0 -1.4754,-0.4886 -1.6862,-1.2563 l -1.9673,-6.7699 c -0.0703,-0.6281 0.4215,-1.2563 1.1241,-1.2563 z"
       fill="#ffffff"
       id="path16867" /><path
       d="m 88.7733,50.53 0.5621,-0.0698 v 0.4188 c 0,0.6281 -0.4216,1.1166 -1.054,1.1864 -1.1241,0.1396 -2.1078,0.2792 -3.0212,0.2792 -1.4755,0 -2.5294,-0.349 -3.232,-1.1167 -0.6324,-0.7677 -0.9837,-1.9542 -0.9837,-3.5594 0,-3.2105 1.4755,-4.8157 4.3562,-4.8157 2.8105,0 4.2157,1.3958 4.2157,4.1876 -0.0702,0.8375 -0.7729,1.3958 -1.5457,1.3958 h -4.7778 c 0,0.7677 0.2108,1.3261 0.5621,1.675 0.3513,0.349 0.9836,0.5584 1.9673,0.5584 0.9837,0 1.9673,-0.0698 2.951,-0.1396 z m -1.1945,-3.5594 c 0,-0.9073 -0.1405,-1.5355 -0.4918,-1.8844 -0.281,-0.349 -0.8431,-0.5584 -1.616,-0.5584 -0.7729,0 -1.2647,0.2094 -1.616,0.5584 -0.3513,0.3489 -0.4918,0.9771 -0.5621,1.8844 z"
       fill="#ffffff"
       id="path16869" /><path
       d="m 99.7338,50.53 v 0.4886 c 0,0.5583 -0.4215,1.0469 -0.9836,1.1167 -1.1242,0.1395 -2.1781,0.2791 -3.0915,0.2791 -1.4755,0 -2.5295,-0.3489 -3.2321,-1.1167 -0.6323,-0.7677 -0.9836,-1.9542 -0.9836,-3.5594 0,-3.2105 1.4755,-4.8157 4.3562,-4.8157 2.8104,0 4.2158,1.3959 4.2158,4.1876 -0.07,0.8375 -0.773,1.3958 -1.5459,1.3958 h -4.7778 c 0,0.7678 0.2108,1.3261 0.5621,1.6751 0.3513,0.3489 0.9837,0.5583 1.9673,0.5583 0.9134,-0.0698 3.5131,-0.2094 3.5131,-0.2094 z M 97.907,46.9706 c 0,-0.9073 -0.1405,-1.5355 -0.4918,-1.8844 -0.2811,-0.349 -0.8431,-0.5584 -1.616,-0.5584 -0.7729,0 -1.2647,0.2094 -1.616,0.5584 -0.3513,0.3489 -0.4919,0.9771 -0.5621,1.8844 z"
       fill="#ffffff"
       id="path16871" /><path
       d="m 109.782,45.9237 v 4.1178 c 0,0.2791 0.07,0.4885 0.211,0.5583 0.14,0.0698 0.351,0.2094 0.632,0.2792 v 0.4187 c 0,0.6282 -0.562,1.1167 -1.194,0.9771 -0.633,-0.0698 -1.125,-0.2791 -1.476,-0.5583 -1.054,0.4188 -2.178,0.6979 -3.232,0.6979 -1.967,0 -3.021,-0.9771 -3.021,-2.8615 0,-0.9073 0.281,-1.6052 0.843,-2.024 0.562,-0.4187 1.405,-0.6281 2.529,-0.7677 l 2.6,-0.2094 v -0.6281 c 0,-0.4886 -0.141,-0.8375 -0.351,-1.0469 -0.211,-0.2094 -0.562,-0.2792 -1.054,-0.2792 -0.843,0 -1.968,0.0698 -3.232,0.1396 l -0.633,0.0698 v -0.5583 c 0,-0.4886 0.281,-0.9073 0.773,-1.0469 1.124,-0.2094 2.178,-0.2792 3.162,-0.2792 1.194,0 2.108,0.2094 2.67,0.6979 0.492,0.4886 0.773,1.2563 0.773,2.3032 z m -4.497,2.2334 c -0.913,0.0698 -1.405,0.5583 -1.405,1.3958 0,0.8375 0.421,1.2563 1.194,1.2563 0.703,0 1.406,-0.0698 2.108,-0.2792 l 0.351,-0.1396 v -2.4427 z"
       fill="#ffffff"
       id="path16873" /><path
       d="m 113.787,52.4144 c -0.632,0 -1.124,-0.4885 -1.124,-1.0469 V 44.458 c 0,-0.7677 0.281,-1.326 1.054,-1.326 0.913,0 1.124,0.5583 1.124,0.5583 0.983,-0.4885 1.827,-0.7677 2.599,-0.7677 1.195,0 2.038,0.2792 2.53,0.9073 1.194,-0.6281 2.459,-0.9073 3.654,-0.9073 1.194,0 2.037,0.349 2.529,0.9771 0.492,0.6979 0.773,1.8146 0.773,3.4199 v 4.0479 c 0,0.6282 -0.492,1.0469 -1.054,1.0469 -0.632,0 -1.054,-0.4885 -1.054,-1.0469 v -3.9782 c 0,-0.9771 -0.141,-1.675 -0.351,-2.0937 -0.211,-0.4188 -0.703,-0.6282 -1.406,-0.6282 -0.632,0 -1.264,0.1396 -1.967,0.349 l -0.351,0.1396 c 0.14,0.2094 0.14,1.0469 0.14,2.3031 v 3.9084 c 0,0.6282 -0.421,1.0469 -1.054,1.0469 -0.632,0 -1.124,-0.4885 -1.124,-1.0469 v -3.8386 c 0,-1.0469 -0.14,-1.8146 -0.351,-2.2333 -0.211,-0.4188 -0.703,-0.6282 -1.405,-0.6282 -0.703,0 -1.265,0.1396 -1.897,0.349 l -0.281,0.1396 v 6.2115 c 0.14,0.6282 -0.352,1.0469 -0.984,1.0469 z"
       fill="#ffffff"
       id="path16875" /><path
       d="m 71.5598,41.3174 c 0.5621,0 0.9837,0.3489 1.054,0.7677 l 2.3186,8.1657 c 0.1405,0.349 0.6323,0.349 0.7729,0 l 2.1781,-8.2355 c 0.1405,-0.4886 0.562,-0.7677 1.0539,-0.7677 0.7026,0 1.1944,0.6979 1.0539,1.326 l -2.2484,8.5147 c -0.2108,0.7678 -0.9134,1.2563 -1.6862,1.2563 h -1.2647 c -0.7729,0 -1.4755,-0.4885 -1.6863,-1.2563 l -2.4592,-8.5147 c -0.281,-0.5583 0.2108,-1.2562 0.9134,-1.2562 z"
       fill="#ffffff"
       id="path16877" /><path
       d="m 72.1218,30.1505 c -0.9837,0 -1.7565,0.7677 -1.7565,1.8146 0,0.5583 0.2107,1.0469 0.4918,1.3959 0.3513,0.3489 0.7729,0.4885 1.1944,0.4885 h 9.134 c 3.4429,0 5.9723,-2.4427 5.9723,-5.7928 0,-3.3501 -2.5997,-6.0022 -5.902,-6.0022 h -5.6209 c -1.4755,0 -2.4592,-0.8375 -2.4592,-2.0938 0,-1.326 0.9837,-2.1635 2.4592,-2.1635 h 9.0637 c 1.1242,0 1.7566,-0.9771 1.7566,-1.8844 0,-1.0469 -0.7729,-1.8147 -1.7566,-1.8147 h -9.134 c -3.4428,0 -5.9722,2.5126 -5.9722,5.8626 0,3.2803 2.5997,5.7928 5.9722,5.7928 h 5.5507 c 1.4755,0 2.4591,0.9073 2.4591,2.3032 0,1.3261 -0.9134,2.1636 -2.4591,2.1636 h -8.9935 z"
       fill="#ffffff"
       id="path16879" /><path
       d="m 107.956,15.8432 c 0,0.9771 -0.914,1.8146 -1.968,1.8146 h -3.372 -2.108 v 14.2377 c 0,1.0469 -0.9135,1.9542 -1.9674,1.9542 -1.0539,0 -1.9673,-0.9073 -1.9673,-1.9542 V 17.6578 h -1.7565 -3.7239 c -1.0539,0 -1.9673,-0.8375 -1.9673,-1.8146 0,-0.9771 0.9134,-1.8146 1.9673,-1.8146 h 3.7239 3.1617 0.2108 4.3567 3.372 c 1.195,0 2.038,0.8375 2.038,1.8146 z"
       fill="#ffffff"
       id="path16881" /><path
       d="m 127.909,32.1049 c 0,0.9771 -0.913,1.8146 -1.967,1.8146 h -3.443 -3.302 -0.352 -2.389 -0.351 -0.913 c 0,0 -1.335,0 -1.827,-0.2094 -0.351,-0.1396 -0.632,-0.2093 -0.913,-0.4187 -0.984,-0.6282 -1.617,-1.7448 -1.687,-3.0011 v -0.1396 -0.4188 -0.7677 -2.1636 -1.1864 c 0,-1.3261 0.633,-2.4428 1.687,-3.0709 0.281,-0.2094 0.632,-0.2792 0.913,-0.4188 0.492,-0.2093 1.827,-0.1396 1.827,-0.1396 h 0.913 0.351 2.389 0.352 3.302 3.443 c 1.054,0 1.967,0.8376 1.967,1.8147 0,0.9771 -0.913,1.8146 -1.967,1.8146 h -3.443 -3.302 -0.352 -2.389 -0.702 c -0.703,0 -1.265,0.2093 -1.265,1.0469 v 2.5823 c 0,0.6979 0.703,1.0469 1.265,1.0469 h 0.702 2.389 0.352 3.302 3.443 c 1.054,0 1.967,0.7677 1.967,1.8146 z m -2.038,-18.0763 h -3.372 -3.302 -0.352 -2.389 -3.723 c -1.054,0 -1.968,0.8375 -1.968,1.8146 0,0.9771 0.914,1.8146 1.968,1.8146 h 3.723 2.389 0.352 3.372 3.373 c 1.054,0 1.967,-0.8375 1.967,-1.8146 -0.07,-0.9771 -0.913,-1.8146 -2.038,-1.8146 z"
       fill="#ffffff"
       id="path16883" /><path
       d="m 27.9977,15.9828 v 6.5605 2.7917 6.5605 c 0,1.0469 -0.9134,1.9542 -1.9673,1.9542 -1.0539,0 -1.9673,-0.9073 -1.9673,-1.9542 V 25.335 22.5433 15.9828 c 0,-1.0469 0.9134,-1.9542 1.9673,-1.9542 1.0539,0 1.9673,0.9073 1.9673,1.9542 z"
       fill="#ffffff"
       id="path16885" /><path
       d="m 34.6019,23.939 7.518,-6.4209 c 0.7026,-0.6281 0.9837,-1.675 0.4918,-2.5125 -0.6323,-1.1167 -2.1078,-1.3261 -3.0212,-0.5584 l -10.3987,8.9335 c -0.3513,0.2792 -0.3513,0.7677 0,1.0469 l 10.3284,8.8637 c 0.7026,0.6281 1.8268,0.6979 2.5294,0.1396 0.9837,-0.7678 0.9837,-2.2334 0.0703,-3.0011 z"
       fill="#ffffff"
       id="path16887" /><path
       d="m 149.34,15.9828 v 14.2377 c 0,2.2334 -1.054,3.699 -3.022,3.699 -2.107,0 -2.88,-1.2563 -3.724,-2.4427 l -7.939,-12.5627 v 13.0512 c 0,1.0469 -0.913,1.8844 -1.967,1.8844 -1.054,0 -1.968,-0.8375 -1.968,-1.9542 V 17.7276 c 0,-2.0938 1.476,-3.699 3.373,-3.699 1.335,0 2.529,0.9771 3.232,1.9542 0.07,0.1395 8.15,12.9116 8.15,12.9116 V 15.913 c 0,-0.698 0.703,-1.8146 1.968,-1.8146 0.983,0 1.897,0.8375 1.897,1.8844 z"
       fill="#ffffff"
       id="path16889" /><path
       d="M 67.2735,30.7788 60.5284,16.6807 c -0.6323,-1.675 -1.8971,-2.6521 -3.8644,-2.6521 -1.616,0 -3.0212,0.8375 -3.7941,2.6521 l -6.6748,13.819 c -1.335,2.4427 0.9134,3.35 1.5457,3.2802 0.7729,0 1.4755,-0.4885 1.8268,-1.2562 0.2811,-0.6282 1.7566,-3.6991 1.7566,-3.6991 h 5.3398 c 1.0539,0 1.8268,-0.9073 1.8268,-1.9542 0,-1.0469 -0.8431,-1.9542 -1.8268,-1.9542 h -3.513 l 3.0915,-6.2813 v -0.0698 c 0.0702,-0.2094 0.2107,-0.349 0.281,-0.4188 0.0703,0 0.2108,0 0.2811,0 0.1405,0.0698 0.281,0.2792 0.3513,0.4886 l 6.6748,13.8888 c 0.281,0.5583 1.4052,1.8146 3.0212,0.8375 0.7729,-0.4886 0.9837,-1.6053 0.4216,-2.5824 z"
       fill="#ffffff"
       id="path16891" /></g><path
     style="fill:url(#linearGradient3737);fill-opacity:1;stroke:none;stroke-width:0.164282px;stroke-linecap:butt;stroke-linejoin:miter;stroke-opacity:1"
     d="M 13.755349,12.188919 23.32067,61.57267 c 0.648788,3.349557 13.903086,3.114291 13.903086,3.114291 C 42.673714,65.90775 36.36221,31.19546 13.755349,12.188919 Z"
     id="path16895" /><path
     id="path16897"
     style="opacity:0.998192;fill:#555555;fill-opacity:1;stroke:#262438;stroke-width:0.620911;stroke-linecap:round;stroke-linejoin:round;stroke-dasharray:none;stroke-opacity:1;stop-color:#000000"
     d="m 35.484989,1.9190249 c -5.150634,0.094856 -10.303811,0.5744157 -15.280036,2.027917 -2.036031,0.6286775 -4.176634,1.387373 -5.860295,2.8285407 -0.679848,0.5665565 -1.289908,1.4741959 -0.952423,2.3896977 0.674694,1.4290297 2.161031,2.2149637 3.524074,2.8680157 3.490113,1.601605 7.265318,2.27082 11.025336,2.769858 6.261845,0.719265 12.610802,0.656011 18.850805,-0.296244 3.376302,-0.553059 6.735806,-1.317253 9.784457,-2.902073 1.054722,-0.615086 2.210728,-1.328226 2.679759,-2.5137073 C 59.524529,8.308391 59.080025,7.5323897 58.525392,7.0075827 57.180128,5.6596858 55.345395,4.9713354 53.592775,4.3242012 49.64348,2.9583855 45.449519,2.409778 41.283652,2.0842623 39.370114,1.9519337 37.418397,1.9042904 35.484989,1.9190249 Z" /></svg>
