<?xml version="1.0" encoding="UTF-8" standalone="no"?>
<!-- Created with Inkscape (http://www.inkscape.org/) -->

<svg
   width="300"
   height="250"
   viewBox="0 0 79.374998 66.145833"
   version="1.1"
   id="svg5"
   sodipodi:docname="static-socks-inkscape.svg"
   xml:space="preserve"
   inkscape:version="1.2.1 (9c6d41e410, 2022-07-14)"
   xmlns:inkscape="http://www.inkscape.org/namespaces/inkscape"
   xmlns:sodipodi="http://sodipodi.sourceforge.net/DTD/sodipodi-0.dtd"
   xmlns="http://www.w3.org/2000/svg"
   xmlns:svg="http://www.w3.org/2000/svg"><sodipodi:namedview
     id="namedview7"
     pagecolor="#ffffff"
     bordercolor="#666666"
     borderopacity="1.0"
     inkscape:showpageshadow="2"
     inkscape:pageopacity="0.0"
     inkscape:pagecheckerboard="0"
     inkscape:deskcolor="#d1d1d1"
     inkscape:document-units="px"
     showgrid="false"
     inkscape:zoom="1.0771772"
     inkscape:cx="75.660718"
     inkscape:cy="172.20936"
     inkscape:window-width="1350"
     inkscape:window-height="1032"
     inkscape:window-x="186"
     inkscape:window-y="5"
     inkscape:window-maximized="0"
     inkscape:current-layer="layer1" /><defs
     id="defs2"><rect
       x="132.60175"
       y="375.48611"
       width="431.94031"
       height="367.6088"
       id="rect788" /><clipPath
       id="clip0_200_4114"><rect
         width="172"
         height="64"
         fill="#ffffff"
         transform="translate(0.765625)"
         id="rect2386"
         x="0"
         y="0" /></clipPath></defs><g
     inkscape:label="Layer 1"
     inkscape:groupmode="layer"
     id="layer1"><path
       id="path12745"
       style="fill:#00999a;fill-opacity:1;stroke-width:0.173989"
       d="m 33.835713,2.4876359 c -0.757545,0.141853 -1.436768,0.6999129 -1.545764,1.4901284 -0.569036,2.1972629 -0.525775,4.4894143 -0.654705,6.7402487 -0.198372,4.911155 -0.05662,9.856582 -0.792535,14.729148 -0.400416,2.371661 -0.975001,4.717226 -1.701926,7.008473 -1.158608,3.542299 -4.094382,6.182921 -5.725487,8.858826 -1.046351,1.764373 -1.344669,4.027247 -0.352063,5.873096 0.526143,1.027957 1.542114,1.720673 2.434974,2.308533 1.346316,0.827781 2.880183,1.269935 4.257785,2.039786 4.807671,2.432779 9.086331,5.739523 13.52566,8.759958 1.535781,1.009932 3.240184,1.848502 5.097391,2.005805 1.345837,0.162104 2.713786,0.195324 4.046956,-0.0826 1.739193,-0.260893 3.491483,-0.757452 4.897587,-1.857056 1.585389,-1.132748 2.726693,-3.059671 2.460326,-5.053495 -0.106555,-1.044365 -0.418523,-2.13302 -1.257127,-2.828556 -1.015212,-0.903954 -2.349992,-1.470263 -3.702997,-1.578219 -0.884068,0.03917 -1.784439,0.06963 -2.627811,-0.199954 -1.58045,-0.363799 -3.098991,-1.155386 -4.107205,-2.453837 C 46.053446,45.897092 44.536119,43.109905 43.555589,40.165498 42.743222,37.46872 42.875427,34.571419 43.529821,31.857044 44.898167,25.21863 46.865535,18.710242 49.300297,12.386118 49.867588,10.76993 50.864119,9.1632333 50.57518,7.380822 50.271071,5.9550398 48.83809,5.2336164 47.613398,4.715832 44.208124,3.358416 40.623766,2.5008999 36.968032,2.284143 35.92094,2.2346771 34.863568,2.2666346 33.835713,2.4876359 Z"
       sodipodi:nodetypes="ccccccccccccccccccccccccc" /><path
       style="fill:#006667;fill-opacity:1;stroke-width:0.175561"
       d="m 54.839883,61.33263 c -0.01236,-0.07266 0.171801,-0.564769 0.409253,-1.093571 1.530176,-3.407705 1.824641,-6.639432 0.758481,-8.324109 -0.326516,-0.515936 -0.329617,-0.561507 -0.04152,-0.610502 0.465297,-0.07913 1.842954,0.660266 2.463248,1.32203 1.536319,1.639045 1.513951,4.604207 -0.04887,6.47926 -1.114449,1.337089 -3.442868,2.801576 -3.540601,2.226894 z M 25.640239,49.848345 c -2.098872,-0.964758 -2.887741,-1.903611 -3.189675,-3.796113 -0.22552,-1.413516 -0.08303,-2.3772 0.568691,-3.846306 0.668957,-1.507944 0.824541,-1.584851 2.009405,-0.993294 1.229506,0.613843 4.95674,2.193829 5.539956,2.348393 0.614159,0.162775 0.58788,0.385819 -0.166535,1.413494 -0.366277,0.498955 -1.005072,1.525817 -1.419544,2.281913 -1.11809,2.039694 -1.720817,2.875506 -2.117746,2.93672 -0.195416,0.02989 -0.746423,-0.125033 -1.224552,-0.344807 z"
       id="path12735"
       sodipodi:nodetypes="ssssssssssssssscs" /><g
       clip-path="url(#clip0_200_4114)"
       id="g2384"
       transform="matrix(0.08586631,0.02070996,-0.02070996,0.08586631,30.958327,21.906563)"><path
         d="M 164.19936,64.720734 9.452282,64.719931 C 10.373145,41.351592 6.5408498,29.055222 3.3292547,0.36116938 L 164.8595,-0.05979364 C 162.4455,23.232215 165.11732,41.638267 164.19936,64.720734 Z"
         fill="#2600ff"
         id="path2354"
         sodipodi:nodetypes="ccccc" /><path
         d="m 51.1431,42.9225 c 1.4052,0 2.3889,0.349 3.0213,1.0469 0.6323,0.698 0.9134,1.9542 0.9134,3.6991 0,1.7448 -0.3514,3.001 -1.054,3.699 -0.7026,0.6979 -1.9673,1.0469 -3.7941,1.0469 -0.3513,0 -1.616,-0.0698 -2.5294,-0.1396 -0.6323,-0.0698 -1.1944,-0.5584 -1.1944,-1.2563 v -9.9106 c 0,-0.6281 0.4918,-1.0469 1.0539,-1.0469 0.6323,0 1.0539,0.4886 1.0539,1.0469 v 2.373 c 0.9837,-0.4188 1.8268,-0.5584 2.5294,-0.5584 z m -0.9836,7.6772 c 1.0539,0 1.7565,-0.2093 2.1781,-0.6979 0.3513,-0.4885 0.562,-1.2563 0.562,-2.3031 0,-1.0469 -0.1405,-1.8844 -0.4215,-2.3032 -0.2811,-0.4188 -0.7729,-0.6979 -1.4755,-0.6979 -0.6324,0 -1.2647,0.0698 -1.9673,0.2791 l -0.3513,0.0698 v 5.5137 c 0.7026,0.1396 1.1944,0.1395 1.4755,0.1395 z"
         fill="#ffffff"
         id="path2356" /><path
         d="m 57.6777,43.1318 c 0.4919,0 0.8432,0.2792 0.9837,0.7678 l 1.897,6.4907 c 0.0703,0.2792 0.5621,0.2792 0.6324,0 l 1.8971,-6.4907 c 0.1405,-0.4188 0.5621,-0.7678 0.9836,-0.7678 0.7026,0 1.1945,0.6282 0.9837,1.3261 l -3.232,10.9575 c -0.1406,0.4187 -0.4919,0.6979 -0.9837,0.6979 -0.7026,0 -1.1944,-0.6979 -0.9837,-1.3261 l 0.7729,-2.3729 h -0.4216 c -0.7728,0 -1.4754,-0.4886 -1.6862,-1.2563 l -1.9673,-6.7699 c -0.0703,-0.6281 0.4215,-1.2563 1.1241,-1.2563 z"
         fill="#ffffff"
         id="path2358" /><path
         d="m 88.8733,50.53 0.5621,-0.0698 v 0.4188 c 0,0.6281 -0.4216,1.1166 -1.054,1.1864 -1.1241,0.1396 -2.1078,0.2792 -3.0212,0.2792 -1.4755,0 -2.5294,-0.349 -3.232,-1.1167 -0.6324,-0.7677 -0.9837,-1.9542 -0.9837,-3.5594 0,-3.2105 1.4755,-4.8157 4.3562,-4.8157 2.8105,0 4.2157,1.3958 4.2157,4.1876 -0.0702,0.8375 -0.7729,1.3958 -1.5457,1.3958 h -4.7778 c 0,0.7677 0.2108,1.3261 0.5621,1.675 0.3513,0.349 0.9836,0.5584 1.9673,0.5584 0.9837,0 1.9673,-0.0698 2.951,-0.1396 z m -1.1945,-3.5594 c 0,-0.9073 -0.1405,-1.5355 -0.4918,-1.8844 -0.281,-0.349 -0.8431,-0.5584 -1.616,-0.5584 -0.7729,0 -1.2647,0.2094 -1.616,0.5584 -0.3513,0.3489 -0.4918,0.9771 -0.5621,1.8844 z"
         fill="#ffffff"
         id="path2360" /><path
         d="m 99.8338,50.53 v 0.4886 c 0,0.5583 -0.4215,1.0469 -0.9836,1.1167 -1.1242,0.1395 -2.1781,0.2791 -3.0915,0.2791 -1.4755,0 -2.5295,-0.3489 -3.2321,-1.1167 -0.6323,-0.7677 -0.9836,-1.9542 -0.9836,-3.5594 0,-3.2105 1.4755,-4.8157 4.3562,-4.8157 2.8104,0 4.2158,1.3959 4.2158,4.1876 -0.07,0.8375 -0.773,1.3958 -1.5459,1.3958 h -4.7778 c 0,0.7678 0.2108,1.3261 0.5621,1.6751 0.3513,0.3489 0.9837,0.5583 1.9673,0.5583 0.9134,-0.0698 3.5131,-0.2094 3.5131,-0.2094 z M 98.007,46.9706 c 0,-0.9073 -0.1405,-1.5355 -0.4918,-1.8844 -0.2811,-0.349 -0.8431,-0.5584 -1.616,-0.5584 -0.7729,0 -1.2647,0.2094 -1.616,0.5584 -0.3513,0.3489 -0.4919,0.9771 -0.5621,1.8844 z"
         fill="#ffffff"
         id="path2362" /><path
         d="m 109.882,45.9237 v 4.1178 c 0,0.2791 0.07,0.4885 0.211,0.5583 0.14,0.0698 0.351,0.2094 0.632,0.2792 v 0.4187 c 0,0.6282 -0.562,1.1167 -1.194,0.9771 -0.633,-0.0698 -1.125,-0.2791 -1.476,-0.5583 -1.054,0.4188 -2.178,0.6979 -3.232,0.6979 -1.967,0 -3.021,-0.9771 -3.021,-2.8615 0,-0.9073 0.281,-1.6052 0.843,-2.024 0.562,-0.4187 1.405,-0.6281 2.529,-0.7677 l 2.6,-0.2094 v -0.6281 c 0,-0.4886 -0.141,-0.8375 -0.351,-1.0469 -0.211,-0.2094 -0.562,-0.2792 -1.054,-0.2792 -0.843,0 -1.968,0.0698 -3.232,0.1396 l -0.633,0.0698 v -0.5583 c 0,-0.4886 0.281,-0.9073 0.773,-1.0469 1.124,-0.2094 2.178,-0.2792 3.162,-0.2792 1.194,0 2.108,0.2094 2.67,0.6979 0.492,0.4886 0.773,1.2563 0.773,2.3032 z m -4.497,2.2334 c -0.913,0.0698 -1.405,0.5583 -1.405,1.3958 0,0.8375 0.421,1.2563 1.194,1.2563 0.703,0 1.406,-0.0698 2.108,-0.2792 l 0.351,-0.1396 v -2.4427 z"
         fill="#ffffff"
         id="path2364" /><path
         d="m 113.887,52.4144 c -0.632,0 -1.124,-0.4885 -1.124,-1.0469 V 44.458 c 0,-0.7677 0.281,-1.326 1.054,-1.326 0.913,0 1.124,0.5583 1.124,0.5583 0.983,-0.4885 1.827,-0.7677 2.599,-0.7677 1.195,0 2.038,0.2792 2.53,0.9073 1.194,-0.6281 2.459,-0.9073 3.654,-0.9073 1.194,0 2.037,0.349 2.529,0.9771 0.492,0.6979 0.773,1.8146 0.773,3.4199 v 4.0479 c 0,0.6282 -0.492,1.0469 -1.054,1.0469 -0.632,0 -1.054,-0.4885 -1.054,-1.0469 v -3.9782 c 0,-0.9771 -0.141,-1.675 -0.351,-2.0937 -0.211,-0.4188 -0.703,-0.6282 -1.406,-0.6282 -0.632,0 -1.264,0.1396 -1.967,0.349 l -0.351,0.1396 c 0.14,0.2094 0.14,1.0469 0.14,2.3031 v 3.9084 c 0,0.6282 -0.421,1.0469 -1.054,1.0469 -0.632,0 -1.124,-0.4885 -1.124,-1.0469 v -3.8386 c 0,-1.0469 -0.14,-1.8146 -0.351,-2.2333 -0.211,-0.4188 -0.703,-0.6282 -1.405,-0.6282 -0.703,0 -1.265,0.1396 -1.897,0.349 l -0.281,0.1396 v 6.2115 c 0.14,0.6282 -0.352,1.0469 -0.984,1.0469 z"
         fill="#ffffff"
         id="path2366" /><path
         d="m 71.6598,41.3174 c 0.5621,0 0.9837,0.3489 1.054,0.7677 l 2.3186,8.1657 c 0.1405,0.349 0.6323,0.349 0.7729,0 l 2.1781,-8.2355 c 0.1405,-0.4886 0.562,-0.7677 1.0539,-0.7677 0.7026,0 1.1944,0.6979 1.0539,1.326 l -2.2484,8.5147 c -0.2108,0.7678 -0.9134,1.2563 -1.6862,1.2563 h -1.2647 c -0.7729,0 -1.4755,-0.4885 -1.6863,-1.2563 l -2.4592,-8.5147 c -0.281,-0.5583 0.2108,-1.2562 0.9134,-1.2562 z"
         fill="#ffffff"
         id="path2368" /><path
         d="m 72.2218,30.1505 c -0.9837,0 -1.7565,0.7677 -1.7565,1.8146 0,0.5583 0.2107,1.0469 0.4918,1.3959 0.3513,0.3489 0.7729,0.4885 1.1944,0.4885 h 9.134 c 3.4429,0 5.9723,-2.4427 5.9723,-5.7928 0,-3.3501 -2.5997,-6.0022 -5.902,-6.0022 h -5.6209 c -1.4755,0 -2.4592,-0.8375 -2.4592,-2.0938 0,-1.326 0.9837,-2.1635 2.4592,-2.1635 h 9.0637 c 1.1242,0 1.7566,-0.9771 1.7566,-1.8844 0,-1.0469 -0.7729,-1.8147 -1.7566,-1.8147 h -9.134 c -3.4428,0 -5.9722,2.5126 -5.9722,5.8626 0,3.2803 2.5997,5.7928 5.9722,5.7928 h 5.5507 c 1.4755,0 2.4591,0.9073 2.4591,2.3032 0,1.3261 -0.9134,2.1636 -2.4591,2.1636 h -8.9935 z"
         fill="#ffffff"
         id="path2370" /><path
         d="m 108.056,15.8432 c 0,0.9771 -0.914,1.8146 -1.968,1.8146 h -3.372 -2.108 v 14.2377 c 0,1.0469 -0.9135,1.9542 -1.9674,1.9542 -1.0539,0 -1.9673,-0.9073 -1.9673,-1.9542 V 17.6578 h -1.7565 -3.7239 c -1.0539,0 -1.9673,-0.8375 -1.9673,-1.8146 0,-0.9771 0.9134,-1.8146 1.9673,-1.8146 h 3.7239 3.1617 0.2108 4.3567 3.372 c 1.195,0 2.038,0.8375 2.038,1.8146 z"
         fill="#ffffff"
         id="path2372" /><path
         d="m 128.009,32.1049 c 0,0.9771 -0.913,1.8146 -1.967,1.8146 h -3.443 -3.302 -0.352 -2.389 -0.351 -0.913 c 0,0 -1.335,0 -1.827,-0.2094 -0.351,-0.1396 -0.632,-0.2093 -0.913,-0.4187 -0.984,-0.6282 -1.617,-1.7448 -1.687,-3.0011 v -0.1396 -0.4188 -0.7677 -2.1636 -1.1864 c 0,-1.3261 0.633,-2.4428 1.687,-3.0709 0.281,-0.2094 0.632,-0.2792 0.913,-0.4188 0.492,-0.2093 1.827,-0.1396 1.827,-0.1396 h 0.913 0.351 2.389 0.352 3.302 3.443 c 1.054,0 1.967,0.8376 1.967,1.8147 0,0.9771 -0.913,1.8146 -1.967,1.8146 h -3.443 -3.302 -0.352 -2.389 -0.702 c -0.703,0 -1.265,0.2093 -1.265,1.0469 v 2.5823 c 0,0.6979 0.703,1.0469 1.265,1.0469 h 0.702 2.389 0.352 3.302 3.443 c 1.054,0 1.967,0.7677 1.967,1.8146 z m -2.038,-18.0763 h -3.372 -3.302 -0.352 -2.389 -3.723 c -1.054,0 -1.968,0.8375 -1.968,1.8146 0,0.9771 0.914,1.8146 1.968,1.8146 h 3.723 2.389 0.352 3.372 3.373 c 1.054,0 1.967,-0.8375 1.967,-1.8146 -0.07,-0.9771 -0.913,-1.8146 -2.038,-1.8146 z"
         fill="#ffffff"
         id="path2374" /><path
         d="m 28.0977,15.9828 v 6.5605 2.7917 6.5605 c 0,1.0469 -0.9134,1.9542 -1.9673,1.9542 -1.0539,0 -1.9673,-0.9073 -1.9673,-1.9542 V 25.335 22.5433 15.9828 c 0,-1.0469 0.9134,-1.9542 1.9673,-1.9542 1.0539,0 1.9673,0.9073 1.9673,1.9542 z"
         fill="#ffffff"
         id="path2376" /><path
         d="m 34.7019,23.939 7.518,-6.4209 c 0.7026,-0.6281 0.9837,-1.675 0.4918,-2.5125 -0.6323,-1.1167 -2.1078,-1.3261 -3.0212,-0.5584 l -10.3987,8.9335 c -0.3513,0.2792 -0.3513,0.7677 0,1.0469 l 10.3284,8.8637 c 0.7026,0.6281 1.8268,0.6979 2.5294,0.1396 0.9837,-0.7678 0.9837,-2.2334 0.0703,-3.0011 z"
         fill="#ffffff"
         id="path2378" /><path
         d="m 149.44,15.9828 v 14.2377 c 0,2.2334 -1.054,3.699 -3.022,3.699 -2.107,0 -2.88,-1.2563 -3.724,-2.4427 l -7.939,-12.5627 v 13.0512 c 0,1.0469 -0.913,1.8844 -1.967,1.8844 -1.054,0 -1.968,-0.8375 -1.968,-1.9542 V 17.7276 c 0,-2.0938 1.476,-3.699 3.373,-3.699 1.335,0 2.529,0.9771 3.232,1.9542 0.07,0.1395 8.15,12.9116 8.15,12.9116 V 15.913 c 0,-0.698 0.703,-1.8146 1.968,-1.8146 0.983,0 1.897,0.8375 1.897,1.8844 z"
         fill="#ffffff"
         id="path2380" /><path
         d="M 67.3735,30.7788 60.6284,16.6807 c -0.6323,-1.675 -1.8971,-2.6521 -3.8644,-2.6521 -1.616,0 -3.0212,0.8375 -3.7941,2.6521 l -6.6748,13.819 c -1.335,2.4427 0.9134,3.35 1.5457,3.2802 0.7729,0 1.4755,-0.4885 1.8268,-1.2562 0.2811,-0.6282 1.7566,-3.6991 1.7566,-3.6991 h 5.3398 c 1.0539,0 1.8268,-0.9073 1.8268,-1.9542 0,-1.0469 -0.8431,-1.9542 -1.8268,-1.9542 h -3.513 l 3.0915,-6.2813 v -0.0698 c 0.0702,-0.2094 0.2107,-0.349 0.281,-0.4188 0.0703,0 0.2108,0 0.2811,0 0.1405,0.0698 0.281,0.2792 0.3513,0.4886 l 6.6748,13.8888 c 0.281,0.5583 1.4052,1.8146 3.0212,0.8375 0.7729,-0.4886 0.9837,-1.6053 0.4216,-2.5824 z"
         fill="#ffffff"
         id="path2382" /></g></g></svg>
