<?xml version="1.0" encoding="UTF-8" standalone="no"?>
<!-- Created with Inkscape (http://www.inkscape.org/) -->

<svg
   width="300"
   height="250"
   viewBox="0 0 79.374998 66.145833"
   version="1.1"
   id="svg845"
   xml:space="preserve"
   inkscape:version="1.2.1 (9c6d41e410, 2022-07-14)"
   sodipodi:docname="static-backpack-inkscape.svg"
   xmlns:inkscape="http://www.inkscape.org/namespaces/inkscape"
   xmlns:sodipodi="http://sodipodi.sourceforge.net/DTD/sodipodi-0.dtd"
   xmlns="http://www.w3.org/2000/svg"
   xmlns:svg="http://www.w3.org/2000/svg"><sodipodi:namedview
     id="namedview847"
     pagecolor="#ffffff"
     bordercolor="#666666"
     borderopacity="1.0"
     inkscape:showpageshadow="2"
     inkscape:pageopacity="0.0"
     inkscape:pagecheckerboard="0"
     inkscape:deskcolor="#d1d1d1"
     inkscape:document-units="px"
     showgrid="false"
     inkscape:zoom="2.1543544"
     inkscape:cx="150.161"
     inkscape:cy="106.52844"
     inkscape:window-width="1350"
     inkscape:window-height="1032"
     inkscape:window-x="98"
     inkscape:window-y="8"
     inkscape:window-maximized="0"
     inkscape:current-layer="layer1" /><defs
     id="defs842"><clipPath
       id="clip0_200_4114"><rect
         width="172"
         height="64"
         fill="#ffffff"
         transform="translate(0.765625)"
         id="rect2386"
         x="0"
         y="0" /></clipPath></defs><g
     inkscape:label="Layer 1"
     inkscape:groupmode="layer"
     id="layer1"><path
       style="fill:#00999a;fill-opacity:1;stroke-width:0.255492"
       d="m 25.632576,63.166146 c -2.801039,-0.742078 -4.807515,-2.081265 -5.67169,-3.78547 -1.739735,-3.430864 -3.042186,-13.184545 -3.028554,-22.680014 0.01274,-8.878547 0.910519,-15.339208 2.828703,-20.356257 0.903036,-2.361902 1.537341,-3.420827 2.985332,-4.983801 L 23.877144,10.140039 23.176539,8.1137495 C 22.791208,6.9992909 22.529843,5.9676091 22.595726,5.8211239 c 0.130486,-0.2901186 2.17371,-0.7772955 3.259987,-0.7772955 0.372634,0 1.224153,-0.3262803 1.892263,-0.7250666 1.580256,-0.9432363 1.486289,-1.0513797 7.323811,-1.5848623 4.476721,-0.4091211 7.359654,-0.3604366 10.81312,-0.078202 6.900936,0.5639782 5.463505,0.5360974 6.804902,1.3797736 0.678967,0.4270413 1.455039,0.7755631 1.724605,0.7744914 0.269568,-0.00108 1.345059,0.1785891 2.389987,0.3992452 l 1.899861,0.4011918 v 0.8697143 c 0,0.4783424 -0.203669,1.6334641 -0.452602,2.5669355 l -0.452605,1.6972209 0.894126,1.091646 c 0.990826,1.209702 2.367896,4.134155 2.965002,6.296717 0.629647,2.280393 1.22559,7.236327 1.702638,14.159347 0.625367,9.075451 0.132426,18.173895 -1.29736,23.946024 -0.651632,2.630659 -1.242765,3.618462 -2.934205,4.903141 -1.606667,1.220288 -3.185586,1.81701 -5.531399,2.090488 -2.955837,0.344573 -26.626667,0.289155 -27.965281,-0.06551 z M 43.561341,5.6961055 c 3.17494,0.048965 4.897232,-0.014453 5.307616,-0.1954231 0.970954,-0.4281717 0.308584,-0.6645908 -2.559128,-0.9134308 -5.852326,-0.507823 -15.188761,-0.077304 -15.188761,0.700387 0,0.5311734 1.345122,0.6841678 4.503379,0.5122147 1.780242,-0.096926 5.351843,-0.1436118 7.936894,-0.1037478 z"
       id="path1051"
       sodipodi:nodetypes="sscsscssssssssscsscssssssssssssss" /><path
       style="fill:#000000;fill-opacity:0.13027523;stroke-width:0.255492"
       d="M 55.593676,9.269257 C 53.703255,8.0005489 52.117905,7.3691501 49.260802,6.7470555 46.61359,6.1706627 45.847314,5.823839 47.221037,5.823839 c 1.212403,0 2.362429,-0.4639742 2.258144,-0.9110396 C 49.372105,4.453791 48.104966,4.2951495 42.781265,4.0742441 38.736885,3.9064235 32.806069,4.2200049 31.340417,4.67916 c -1.012355,0.317147 -0.794815,0.8598852 0.46979,1.172079 1.033306,0.2550927 1.542299,0.6683551 0.823172,0.6683551 -0.726342,0 -6.220667,1.9354428 -7.266604,2.5597515 -0.633129,0.3779064 -1.210481,0.6871034 -1.283004,0.6871034 -0.212174,0 -1.49987,-3.2860457 -1.49987,-3.8842607 1.892999,-1.1861367 2.945555,-0.6488727 4.801657,-1.3748986 1.017547,-0.958769 2.20497,-1.2231399 8.224373,-1.7181344 5.295885,-0.4354979 14.616673,0.1476057 16.592764,0.9730562 2.444016,1.4261628 3.659905,1.0558303 6.149181,1.8034346 l -0.166472,1.5785858 c -0.16705,1.5839891 -0.657838,3.0932431 -1.000861,3.0777761 -0.100963,-0.0045 -0.816848,-0.43329 -1.590867,-0.952751 z"
       id="path2344" /><path
       style="fill:#05aeaf;fill-opacity:1;stroke-width:0.255492"
       d="m 26.603176,63.133046 c -0.309607,-0.108394 -1.069551,-0.329777 -1.688765,-0.491962 -3.367925,-0.882132 -4.932945,-2.728814 -5.795774,-6.838878 -0.327212,-1.558663 -0.240523,-10.817811 0.179134,-19.13325 0.17342,-3.436261 1.095306,-10.686048 1.706554,-13.4205 0.510129,-2.282086 2.166425,-6.331563 2.998403,-7.330795 2.572114,-3.089183 8.141499,-4.671111 16.251317,-4.616019 5.769139,0.03919 12.018092,1.205045 13.883469,2.590213 0.835098,0.620118 2.919766,2.946169 3.543939,3.954281 0.310612,0.501683 0.764576,1.680706 1.00881,2.620043 0.244233,0.93934 0.565753,2.125343 0.71449,2.635564 0.666693,2.28701 1.831855,12.773382 2.267656,20.408803 0.646608,11.328782 -0.038,15.348353 -2.976108,17.473966 -1.503074,1.087425 -2.99935,1.633489 -5.130448,1.872348 -2.543956,0.285141 -26.243722,0.527905 -26.962677,0.276186 z"
       id="path1047"
       sodipodi:nodetypes="sssssssssssssss" /><g
       clip-path="url(#clip0_200_4114)"
       id="g2384"
       transform="matrix(0.08361264,0,0,0.08361264,33.307019,23.116301)"><path
         d="M 165.88,64 H 7.65125 C 3.85713,64 0.765625,60.9291 0.765625,57.1603 V 6.90949 C 0.765625,3.07088 3.85713,0 7.65125,0 H 165.88 c 3.794,0 6.886,3.07088 6.886,6.8397 v 50.2508 c 0,3.8386 -3.092,6.9095 -6.886,6.9095 z"
         fill="#2600ff"
         id="path2354" /><path
         d="m 51.1431,42.9225 c 1.4052,0 2.3889,0.349 3.0213,1.0469 0.6323,0.698 0.9134,1.9542 0.9134,3.6991 0,1.7448 -0.3514,3.001 -1.054,3.699 -0.7026,0.6979 -1.9673,1.0469 -3.7941,1.0469 -0.3513,0 -1.616,-0.0698 -2.5294,-0.1396 -0.6323,-0.0698 -1.1944,-0.5584 -1.1944,-1.2563 v -9.9106 c 0,-0.6281 0.4918,-1.0469 1.0539,-1.0469 0.6323,0 1.0539,0.4886 1.0539,1.0469 v 2.373 c 0.9837,-0.4188 1.8268,-0.5584 2.5294,-0.5584 z m -0.9836,7.6772 c 1.0539,0 1.7565,-0.2093 2.1781,-0.6979 0.3513,-0.4885 0.562,-1.2563 0.562,-2.3031 0,-1.0469 -0.1405,-1.8844 -0.4215,-2.3032 -0.2811,-0.4188 -0.7729,-0.6979 -1.4755,-0.6979 -0.6324,0 -1.2647,0.0698 -1.9673,0.2791 l -0.3513,0.0698 v 5.5137 c 0.7026,0.1396 1.1944,0.1395 1.4755,0.1395 z"
         fill="#ffffff"
         id="path2356" /><path
         d="m 57.6777,43.1318 c 0.4919,0 0.8432,0.2792 0.9837,0.7678 l 1.897,6.4907 c 0.0703,0.2792 0.5621,0.2792 0.6324,0 l 1.8971,-6.4907 c 0.1405,-0.4188 0.5621,-0.7678 0.9836,-0.7678 0.7026,0 1.1945,0.6282 0.9837,1.3261 l -3.232,10.9575 c -0.1406,0.4187 -0.4919,0.6979 -0.9837,0.6979 -0.7026,0 -1.1944,-0.6979 -0.9837,-1.3261 l 0.7729,-2.3729 h -0.4216 c -0.7728,0 -1.4754,-0.4886 -1.6862,-1.2563 l -1.9673,-6.7699 c -0.0703,-0.6281 0.4215,-1.2563 1.1241,-1.2563 z"
         fill="#ffffff"
         id="path2358" /><path
         d="m 88.8733,50.53 0.5621,-0.0698 v 0.4188 c 0,0.6281 -0.4216,1.1166 -1.054,1.1864 -1.1241,0.1396 -2.1078,0.2792 -3.0212,0.2792 -1.4755,0 -2.5294,-0.349 -3.232,-1.1167 -0.6324,-0.7677 -0.9837,-1.9542 -0.9837,-3.5594 0,-3.2105 1.4755,-4.8157 4.3562,-4.8157 2.8105,0 4.2157,1.3958 4.2157,4.1876 -0.0702,0.8375 -0.7729,1.3958 -1.5457,1.3958 h -4.7778 c 0,0.7677 0.2108,1.3261 0.5621,1.675 0.3513,0.349 0.9836,0.5584 1.9673,0.5584 0.9837,0 1.9673,-0.0698 2.951,-0.1396 z m -1.1945,-3.5594 c 0,-0.9073 -0.1405,-1.5355 -0.4918,-1.8844 -0.281,-0.349 -0.8431,-0.5584 -1.616,-0.5584 -0.7729,0 -1.2647,0.2094 -1.616,0.5584 -0.3513,0.3489 -0.4918,0.9771 -0.5621,1.8844 z"
         fill="#ffffff"
         id="path2360" /><path
         d="m 99.8338,50.53 v 0.4886 c 0,0.5583 -0.4215,1.0469 -0.9836,1.1167 -1.1242,0.1395 -2.1781,0.2791 -3.0915,0.2791 -1.4755,0 -2.5295,-0.3489 -3.2321,-1.1167 -0.6323,-0.7677 -0.9836,-1.9542 -0.9836,-3.5594 0,-3.2105 1.4755,-4.8157 4.3562,-4.8157 2.8104,0 4.2158,1.3959 4.2158,4.1876 -0.07,0.8375 -0.773,1.3958 -1.5459,1.3958 h -4.7778 c 0,0.7678 0.2108,1.3261 0.5621,1.6751 0.3513,0.3489 0.9837,0.5583 1.9673,0.5583 0.9134,-0.0698 3.5131,-0.2094 3.5131,-0.2094 z M 98.007,46.9706 c 0,-0.9073 -0.1405,-1.5355 -0.4918,-1.8844 -0.2811,-0.349 -0.8431,-0.5584 -1.616,-0.5584 -0.7729,0 -1.2647,0.2094 -1.616,0.5584 -0.3513,0.3489 -0.4919,0.9771 -0.5621,1.8844 z"
         fill="#ffffff"
         id="path2362" /><path
         d="m 109.882,45.9237 v 4.1178 c 0,0.2791 0.07,0.4885 0.211,0.5583 0.14,0.0698 0.351,0.2094 0.632,0.2792 v 0.4187 c 0,0.6282 -0.562,1.1167 -1.194,0.9771 -0.633,-0.0698 -1.125,-0.2791 -1.476,-0.5583 -1.054,0.4188 -2.178,0.6979 -3.232,0.6979 -1.967,0 -3.021,-0.9771 -3.021,-2.8615 0,-0.9073 0.281,-1.6052 0.843,-2.024 0.562,-0.4187 1.405,-0.6281 2.529,-0.7677 l 2.6,-0.2094 v -0.6281 c 0,-0.4886 -0.141,-0.8375 -0.351,-1.0469 -0.211,-0.2094 -0.562,-0.2792 -1.054,-0.2792 -0.843,0 -1.968,0.0698 -3.232,0.1396 l -0.633,0.0698 v -0.5583 c 0,-0.4886 0.281,-0.9073 0.773,-1.0469 1.124,-0.2094 2.178,-0.2792 3.162,-0.2792 1.194,0 2.108,0.2094 2.67,0.6979 0.492,0.4886 0.773,1.2563 0.773,2.3032 z m -4.497,2.2334 c -0.913,0.0698 -1.405,0.5583 -1.405,1.3958 0,0.8375 0.421,1.2563 1.194,1.2563 0.703,0 1.406,-0.0698 2.108,-0.2792 l 0.351,-0.1396 v -2.4427 z"
         fill="#ffffff"
         id="path2364" /><path
         d="m 113.887,52.4144 c -0.632,0 -1.124,-0.4885 -1.124,-1.0469 V 44.458 c 0,-0.7677 0.281,-1.326 1.054,-1.326 0.913,0 1.124,0.5583 1.124,0.5583 0.983,-0.4885 1.827,-0.7677 2.599,-0.7677 1.195,0 2.038,0.2792 2.53,0.9073 1.194,-0.6281 2.459,-0.9073 3.654,-0.9073 1.194,0 2.037,0.349 2.529,0.9771 0.492,0.6979 0.773,1.8146 0.773,3.4199 v 4.0479 c 0,0.6282 -0.492,1.0469 -1.054,1.0469 -0.632,0 -1.054,-0.4885 -1.054,-1.0469 v -3.9782 c 0,-0.9771 -0.141,-1.675 -0.351,-2.0937 -0.211,-0.4188 -0.703,-0.6282 -1.406,-0.6282 -0.632,0 -1.264,0.1396 -1.967,0.349 l -0.351,0.1396 c 0.14,0.2094 0.14,1.0469 0.14,2.3031 v 3.9084 c 0,0.6282 -0.421,1.0469 -1.054,1.0469 -0.632,0 -1.124,-0.4885 -1.124,-1.0469 v -3.8386 c 0,-1.0469 -0.14,-1.8146 -0.351,-2.2333 -0.211,-0.4188 -0.703,-0.6282 -1.405,-0.6282 -0.703,0 -1.265,0.1396 -1.897,0.349 l -0.281,0.1396 v 6.2115 c 0.14,0.6282 -0.352,1.0469 -0.984,1.0469 z"
         fill="#ffffff"
         id="path2366" /><path
         d="m 71.6598,41.3174 c 0.5621,0 0.9837,0.3489 1.054,0.7677 l 2.3186,8.1657 c 0.1405,0.349 0.6323,0.349 0.7729,0 l 2.1781,-8.2355 c 0.1405,-0.4886 0.562,-0.7677 1.0539,-0.7677 0.7026,0 1.1944,0.6979 1.0539,1.326 l -2.2484,8.5147 c -0.2108,0.7678 -0.9134,1.2563 -1.6862,1.2563 h -1.2647 c -0.7729,0 -1.4755,-0.4885 -1.6863,-1.2563 l -2.4592,-8.5147 c -0.281,-0.5583 0.2108,-1.2562 0.9134,-1.2562 z"
         fill="#ffffff"
         id="path2368" /><path
         d="m 72.2218,30.1505 c -0.9837,0 -1.7565,0.7677 -1.7565,1.8146 0,0.5583 0.2107,1.0469 0.4918,1.3959 0.3513,0.3489 0.7729,0.4885 1.1944,0.4885 h 9.134 c 3.4429,0 5.9723,-2.4427 5.9723,-5.7928 0,-3.3501 -2.5997,-6.0022 -5.902,-6.0022 h -5.6209 c -1.4755,0 -2.4592,-0.8375 -2.4592,-2.0938 0,-1.326 0.9837,-2.1635 2.4592,-2.1635 h 9.0637 c 1.1242,0 1.7566,-0.9771 1.7566,-1.8844 0,-1.0469 -0.7729,-1.8147 -1.7566,-1.8147 h -9.134 c -3.4428,0 -5.9722,2.5126 -5.9722,5.8626 0,3.2803 2.5997,5.7928 5.9722,5.7928 h 5.5507 c 1.4755,0 2.4591,0.9073 2.4591,2.3032 0,1.3261 -0.9134,2.1636 -2.4591,2.1636 h -8.9935 z"
         fill="#ffffff"
         id="path2370" /><path
         d="m 108.056,15.8432 c 0,0.9771 -0.914,1.8146 -1.968,1.8146 h -3.372 -2.108 v 14.2377 c 0,1.0469 -0.9135,1.9542 -1.9674,1.9542 -1.0539,0 -1.9673,-0.9073 -1.9673,-1.9542 V 17.6578 h -1.7565 -3.7239 c -1.0539,0 -1.9673,-0.8375 -1.9673,-1.8146 0,-0.9771 0.9134,-1.8146 1.9673,-1.8146 h 3.7239 3.1617 0.2108 4.3567 3.372 c 1.195,0 2.038,0.8375 2.038,1.8146 z"
         fill="#ffffff"
         id="path2372" /><path
         d="m 128.009,32.1049 c 0,0.9771 -0.913,1.8146 -1.967,1.8146 h -3.443 -3.302 -0.352 -2.389 -0.351 -0.913 c 0,0 -1.335,0 -1.827,-0.2094 -0.351,-0.1396 -0.632,-0.2093 -0.913,-0.4187 -0.984,-0.6282 -1.617,-1.7448 -1.687,-3.0011 v -0.1396 -0.4188 -0.7677 -2.1636 -1.1864 c 0,-1.3261 0.633,-2.4428 1.687,-3.0709 0.281,-0.2094 0.632,-0.2792 0.913,-0.4188 0.492,-0.2093 1.827,-0.1396 1.827,-0.1396 h 0.913 0.351 2.389 0.352 3.302 3.443 c 1.054,0 1.967,0.8376 1.967,1.8147 0,0.9771 -0.913,1.8146 -1.967,1.8146 h -3.443 -3.302 -0.352 -2.389 -0.702 c -0.703,0 -1.265,0.2093 -1.265,1.0469 v 2.5823 c 0,0.6979 0.703,1.0469 1.265,1.0469 h 0.702 2.389 0.352 3.302 3.443 c 1.054,0 1.967,0.7677 1.967,1.8146 z m -2.038,-18.0763 h -3.372 -3.302 -0.352 -2.389 -3.723 c -1.054,0 -1.968,0.8375 -1.968,1.8146 0,0.9771 0.914,1.8146 1.968,1.8146 h 3.723 2.389 0.352 3.372 3.373 c 1.054,0 1.967,-0.8375 1.967,-1.8146 -0.07,-0.9771 -0.913,-1.8146 -2.038,-1.8146 z"
         fill="#ffffff"
         id="path2374" /><path
         d="m 28.0977,15.9828 v 6.5605 2.7917 6.5605 c 0,1.0469 -0.9134,1.9542 -1.9673,1.9542 -1.0539,0 -1.9673,-0.9073 -1.9673,-1.9542 V 25.335 22.5433 15.9828 c 0,-1.0469 0.9134,-1.9542 1.9673,-1.9542 1.0539,0 1.9673,0.9073 1.9673,1.9542 z"
         fill="#ffffff"
         id="path2376" /><path
         d="m 34.7019,23.939 7.518,-6.4209 c 0.7026,-0.6281 0.9837,-1.675 0.4918,-2.5125 -0.6323,-1.1167 -2.1078,-1.3261 -3.0212,-0.5584 l -10.3987,8.9335 c -0.3513,0.2792 -0.3513,0.7677 0,1.0469 l 10.3284,8.8637 c 0.7026,0.6281 1.8268,0.6979 2.5294,0.1396 0.9837,-0.7678 0.9837,-2.2334 0.0703,-3.0011 z"
         fill="#ffffff"
         id="path2378" /><path
         d="m 149.44,15.9828 v 14.2377 c 0,2.2334 -1.054,3.699 -3.022,3.699 -2.107,0 -2.88,-1.2563 -3.724,-2.4427 l -7.939,-12.5627 v 13.0512 c 0,1.0469 -0.913,1.8844 -1.967,1.8844 -1.054,0 -1.968,-0.8375 -1.968,-1.9542 V 17.7276 c 0,-2.0938 1.476,-3.699 3.373,-3.699 1.335,0 2.529,0.9771 3.232,1.9542 0.07,0.1395 8.15,12.9116 8.15,12.9116 V 15.913 c 0,-0.698 0.703,-1.8146 1.968,-1.8146 0.983,0 1.897,0.8375 1.897,1.8844 z"
         fill="#ffffff"
         id="path2380" /><path
         d="M 67.3735,30.7788 60.6284,16.6807 c -0.6323,-1.675 -1.8971,-2.6521 -3.8644,-2.6521 -1.616,0 -3.0212,0.8375 -3.7941,2.6521 l -6.6748,13.819 c -1.335,2.4427 0.9134,3.35 1.5457,3.2802 0.7729,0 1.4755,-0.4885 1.8268,-1.2562 0.2811,-0.6282 1.7566,-3.6991 1.7566,-3.6991 h 5.3398 c 1.0539,0 1.8268,-0.9073 1.8268,-1.9542 0,-1.0469 -0.8431,-1.9542 -1.8268,-1.9542 h -3.513 l 3.0915,-6.2813 v -0.0698 c 0.0702,-0.2094 0.2107,-0.349 0.281,-0.4188 0.0703,0 0.2108,0 0.2811,0 0.1405,0.0698 0.281,0.2792 0.3513,0.4886 l 6.6748,13.8888 c 0.281,0.5583 1.4052,1.8146 3.0212,0.8375 0.7729,-0.4886 0.9837,-1.6053 0.4216,-2.5824 z"
         fill="#ffffff"
         id="path2382" /></g><path
       style="fill:#000000;fill-opacity:0.0385321;stroke:none;stroke-width:0.264583px;stroke-linecap:butt;stroke-linejoin:miter;stroke-opacity:1"
       d="m 27.878616,14.369154 c 0,0 -4.786205,12.682398 -4.789721,20.755444 -0.0034,7.864419 2.824707,26.650483 2.824707,26.650483 0,0 8.900455,1.023212 14.737594,0.859692 5.837139,-0.163519 14.123529,-1.105318 14.123529,-1.105318 0,0 2.598258,-19.104497 2.579077,-27.141736 -0.01866,-7.820054 -4.298466,-20.264191 -4.298466,-20.264191 0,0 -8.146613,-1.760324 -12.342733,-1.719387 -4.19612,0.04094 -12.833987,1.965013 -12.833987,1.965013 z"
       id="path4130"
       sodipodi:nodetypes="csczcscsc" /><ellipse
       style="opacity:0.998192;fill:#ffffff;fill-opacity:0.105856;stroke:none;stroke-width:0.2;stroke-linecap:round;stroke-linejoin:round;stop-color:#000000"
       id="path10848"
       cx="39.937809"
       cy="59.111103"
       rx="2.1492324"
       ry="2.0878258" /></g></svg>
