<?xml version="1.0" encoding="UTF-8" standalone="no"?>
<!-- Created with Inkscape (http://www.inkscape.org/) -->

<svg
   width="300"
   height="250"
   viewBox="0 0 79.374999 66.145835"
   version="1.1"
   id="svg6755"
   inkscape:version="1.2.1 (9c6d41e410, 2022-07-14)"
   sodipodi:docname="static-tshirt-inkscape.svg"
   xml:space="preserve"
   xmlns:inkscape="http://www.inkscape.org/namespaces/inkscape"
   xmlns:sodipodi="http://sodipodi.sourceforge.net/DTD/sodipodi-0.dtd"
   xmlns="http://www.w3.org/2000/svg"
   xmlns:svg="http://www.w3.org/2000/svg"><sodipodi:namedview
     id="namedview6757"
     pagecolor="#ffffff"
     bordercolor="#666666"
     borderopacity="1.0"
     inkscape:showpageshadow="2"
     inkscape:pageopacity="0.0"
     inkscape:pagecheckerboard="0"
     inkscape:deskcolor="#d1d1d1"
     inkscape:document-units="px"
     showgrid="false"
     inkscape:zoom="2.0888418"
     inkscape:cx="195.32355"
     inkscape:cy="174.25925"
     inkscape:window-width="1920"
     inkscape:window-height="1009"
     inkscape:window-x="-8"
     inkscape:window-y="-8"
     inkscape:window-maximized="1"
     inkscape:current-layer="svg6755"
     showguides="false" /><defs
     id="defs6752"><linearGradient
       id="linearGradient11822"
       inkscape:swatch="solid"><stop
         style="stop-color:#2600ff;stop-opacity:1;"
         offset="0"
         id="stop11820" /></linearGradient><clipPath
       id="clip0_200_4114"><path
         id="rect2563"
         transform="translate(0.765625)"
         d="M 0,0 H 172 V 64 H 0 Z" /></clipPath><inkscape:path-effect
       effect="bend_path"
       id="path-effect3680"
       is_visible="true"
       lpeversion="1"
       bendpath="M 0.765625,32 H 172.766"
       prop_scale="1"
       scale_y_rel="false"
       vertical="false"
       hide_knot="false" /><clipPath
       id="clip0_200_4114-9"><rect
         width="172"
         height="64"
         fill="#ffffff"
         transform="translate(0.765625)"
         id="rect35799"
         x="0"
         y="0" /></clipPath></defs><g
     inkscape:label="Layer 1"
     inkscape:groupmode="layer"
     id="layer1"
     transform="translate(-60.760183,-31.210957)" /><g
     id="g36612"
     transform="translate(-1.9636688,-0.20718845)"><path
       style="fill:#a7a7a7;stroke-width:0.0692176"
       d="m 27.615459,64.188238 c -1.209674,-0.06236 -2.358932,-0.226546 -2.574486,-0.367787 l -0.164194,-0.10758 0.03959,-1.883074 c 0.02178,-1.035699 0.06905,-3.019982 0.105053,-4.409526 0.113594,-4.384302 0.159606,-17.905901 0.07513,-22.080385 -0.130365,-6.4428 -0.207972,-9.001176 -0.295002,-9.725062 l -0.08321,-0.692175 -0.477444,1.470872 -0.477445,1.470873 h -0.301735 c -1.463178,0 -9.476457,-2.845663 -9.707384,-3.447271 -0.01905,-0.04962 0.15873,-0.610284 0.39506,-1.245915 0.583556,-1.569528 1.162206,-3.217694 2.252655,-6.416226 1.921948,-5.637511 2.484347,-6.742844 4.206163,-8.2667501 0.351582,-0.311171 0.746824,-0.660772 0.878314,-0.776892 0.298132,-0.263285 0.646115,-0.417638 2.4258,-1.076009 0.780427,-0.288709 2.088638,-0.772967 2.907135,-1.07613 0.818498,-0.303162 2.2513,-0.823726 3.184006,-1.156808 0.932706,-0.333082 2.007308,-0.736876 2.388004,-0.897317 0.380697,-0.160443 0.873708,-0.336482 1.095581,-0.391201 0.500829,-0.123512 0.602344,-0.177468 1.118378,-0.594424 0.485293,-0.392117 0.443601,-0.387764 1.91914,-0.200347 2.593281,0.32939 7.439512,0.367888 10.021882,0.07961 1.767448,-0.197303 1.744238,-0.198684 2.095376,0.124649 0.278924,0.256837 1.048999,0.630372 1.299567,0.630372 0.06482,0 0.425436,0.144184 0.801371,0.320409 0.594206,0.278543 2.768447,1.071197 6.151704,2.242705 0.532975,0.184551 1.436263,0.504485 2.007308,0.710963 2.759507,0.997785 2.501086,0.874541 3.283704,1.566029 0.92235,0.814947 1.383904,1.266928 1.662431,1.627951 0.328296,0.4255331 1.149593,2.0017841 1.444587,2.7724811 0.116572,0.304558 0.459663,1.192273 0.762423,1.972701 0.581376,1.498621 0.938189,2.53548 1.917488,5.572009 0.331499,1.027881 0.67445,2.011442 0.762114,2.185692 0.08766,0.17425 0.243829,0.579172 0.347033,0.899828 0.103204,0.320655 0.259277,0.746181 0.346827,0.945615 0.135505,0.308665 0.144946,0.376843 0.06346,0.458324 -0.458066,0.458066 -3.554386,1.770128 -5.824214,2.468005 -1.343468,0.413059 -3.328602,0.923819 -3.904606,1.004626 -0.37141,0.0521 -0.438744,-0.0037 -0.548277,-0.454697 -0.04125,-0.169824 -0.166368,-0.684119 -0.278045,-1.14288 -0.111676,-0.458762 -0.246366,-0.937132 -0.299309,-1.063047 -0.09318,-0.22162 -0.09774,-0.22372 -0.142554,-0.06571 -0.107563,0.379234 -0.203019,2.316349 -0.212695,4.31627 -0.0057,1.180159 -0.05245,4.453043 -0.103869,7.273076 -0.07633,4.186625 -0.07852,6.891573 -0.01187,14.743327 0.04966,5.850544 0.109193,9.765078 0.152034,9.996695 0.07218,0.390258 -0.02799,2.000035 -0.137673,2.21246 -0.101836,0.197227 -0.730821,0.339649 -1.880812,0.42588 -1.272173,0.09539 -26.928129,0.136347 -28.684498,0.04579 z M 40.41027,6.0240489 c -0.05491,-0.143081 -0.0934,-0.12622 -0.0934,0.04092 0,0.07839 0.02979,0.12411 0.0662,0.101609 0.0364,-0.02251 0.04865,-0.08663 0.0272,-0.14252 z"
       id="path36131" /><path
       style="fill:#ff8811;fill-opacity:1;stroke-width:0.0692176"
       d="m 30.211116,64.196079 c -3.745887,-0.04902 -4.983394,-0.164162 -5.235593,-0.487099 -0.05152,-0.06601 -0.04641,-1.077795 0.01724,-3.416178 0.04973,-1.827343 0.12467,-6.997893 0.166517,-11.490107 0.07253,-7.785709 0.06276,-9.358834 -0.103383,-16.646815 -0.01866,-0.818497 -0.05154,-2.313596 -0.07308,-3.322441 -0.04063,-1.903489 -0.132222,-3.413946 -0.228738,-3.772355 -0.04898,-0.18187 -0.114085,-0.02718 -0.524402,1.245916 -0.257666,0.799462 -0.494465,1.48085 -0.526219,1.514193 -0.160984,0.169035 -2.447435,-0.401344 -4.532534,-1.130688 -1.128986,-0.394905 -3.418823,-1.250496 -4.004458,-1.496254 -0.717587,-0.30113 -1.359898,-0.711966 -1.359898,-0.86982 0,-0.07821 0.206098,-0.692006 0.457996,-1.363993 0.502348,-1.340109 1.652542,-4.63006 2.47502,-7.079413 0.598365,-1.781936 1.456686,-4.000251 1.844576,-4.767271 0.144392,-0.285523 0.427377,-0.752741 0.628855,-1.038263 0.440194,-0.6238161 1.488781,-1.7231951 1.909173,-2.0016511 0.166731,-0.110438 0.363718,-0.2778 0.437749,-0.371916 0.08294,-0.105443 0.407444,-0.279599 0.845494,-0.453764 0.978562,-0.389069 5.882014,-2.201981 7.536157,-2.786279 0.746395,-0.263652 1.743128,-0.635621 2.21496,-0.826596 0.471833,-0.190977 1.099115,-0.419453 1.393959,-0.507726 0.377121,-0.112905 0.654203,-0.252851 0.934437,-0.47196 0.645128,-0.504411 0.626819,-0.499717 1.462355,-0.374965 2.774961,0.414317 7.3276,0.494675 10.287302,0.181578 0.723121,-0.07649 1.503065,-0.139083 1.733208,-0.139083 0.389333,0 0.439218,0.0188 0.717027,0.270212 0.272815,0.246895 0.755643,0.472915 1.286947,0.602444 0.113695,0.02772 0.503043,0.188088 0.865219,0.356379 0.362175,0.16829 1.219162,0.504253 1.904415,0.746584 0.685253,0.242331 2.585274,0.913004 4.222268,1.490384 4.019558,1.417729 4.265291,1.507843 4.46453,1.637231 0.299088,0.194229 1.678642,1.431991 2.0822,1.868188 0.60547,0.65444 1.434315,2.1925451 1.928757,3.5792311 0.109579,0.307317 0.390378,1.038386 0.624001,1.624598 0.428802,1.075964 1.425641,3.99438 2.082944,6.098174 0.196258,0.628149 0.444545,1.317285 0.551749,1.531414 0.107205,0.214128 0.259736,0.603477 0.33896,0.865218 0.07922,0.261743 0.226963,0.674362 0.32831,0.916934 l 0.184269,0.441039 -0.16711,0.129609 c -0.594265,0.460906 -3.573496,1.714494 -5.46225,2.298382 -2.021367,0.624884 -3.850579,1.081768 -4.34062,1.084159 -0.25462,0.0013 -0.223958,0.07693 -0.574402,-1.417875 -0.236884,-1.010417 -0.410351,-1.521452 -0.488623,-1.439476 -0.133937,0.140276 -0.220508,1.643316 -0.276269,4.796526 -0.194333,10.989504 -0.20696,12.945898 -0.136471,21.145954 0.0396,4.606421 0.106013,9.029421 0.147588,9.828889 0.06853,1.317713 0.05266,2.179191 -0.05118,2.77851 -0.08342,0.481466 -0.930981,0.56915 -5.977788,0.618434 -5.818691,0.05684 -18.384698,0.06924 -22.011169,0.02183 z"
       id="path36129"
       sodipodi:nodetypes="ccssssssssssssssssssssssssssssssssssssscsscssssssscc" /><path
       style="fill:#773b00;fill-opacity:0.0642202;stroke-width:0.0692176"
       d="m 28.58415,64.102159 c -2.760684,0.77589 -4.717518,-1.605697 -3.526654,-4.136738 0.07239,-11.58573 0.41159,-23.183065 -0.230244,-34.759487 -0.614705,1.722183 -1.811733,3.52876 -3.621107,1.947489 -2.225776,-0.843575 -6.992386,-1.241603 -7.052889,-3.678416 1.744071,-4.479547 2.771442,-9.293951 5.209424,-13.467969 2.153787,-3.1261231 6.064781,-3.7289221 9.342624,-4.9817511 1.840668,-1.140536 5.013367,-2.479141 5.275313,0.639795 1.252033,1.100212 3.348554,2.509371 1.663802,3.761632 -0.462894,1.2357411 -2.847036,-1.976173 -3.301642,0.390112 -1.876976,2.0124141 -3.036074,-0.692695 -4.81881,0.09847 -2.030355,-0.912087 -3.753313,2.2313581 -5.034004,2.2134581 0.638815,2.49183 0.906125,6.226916 3.862766,6.872679 2.357257,1.210704 5.687324,3.002656 3.977187,6.141242 -1.174494,2.98271 -1.294875,6.219693 -0.527671,9.322346 0.255023,3.418569 0.912424,5.431031 0.169214,8.735211 -0.335542,3.12196 -0.699591,6.302456 -0.501593,9.429701 1.414347,2.939687 1.59164,-0.728832 1.581411,-2.231223 1.351055,-2.581182 0.847911,4.459012 1.171108,0.565754 -0.206945,-2.039929 0.594192,-6.924698 1.408954,-6.963513 1.145754,3.377285 0.918932,7.091149 1.339306,10.473736 0.0037,2.311856 -0.653946,5.473447 0.163019,7.962878 1.342229,0.832275 -2.25188,3.321858 -2.62407,0.884574 -0.637645,1.583297 -2.69653,0.438462 -3.925444,0.780016 z m 4.741754,-0.03696 c -0.21306,-0.322132 -0.180897,0.305335 0,0 z m -5.537401,-0.06924 c -0.01573,-0.362201 -0.949665,0.527963 0,0 z m 1.505481,0.01963 c -0.401912,4.56e-4 -0.553507,6.28e-4 0,0 z m 1.835581,0.0042 c -0.345142,-0.252536 -0.173356,0.174874 0,0 z m -2.839235,-0.06966 c -0.280924,-0.223993 -0.147063,0.164311 0,0 z m 2.197094,-0.144503 c -0.633764,-0.506689 -0.545378,0.864983 0,0 z m 0.02951,-0.751493 c 0.907123,-0.101658 0.38908,-1.225882 0.111371,-0.506376 -0.433629,-0.238287 -0.831977,0.387302 -0.111371,0.506376 z m 0.109487,-0.927031 c 0.158998,-0.292515 0.158998,0.292515 0,0 z m -0.899828,0.276866 c -0.282519,-0.595932 -0.30407,0.560521 0,0 z m 4.61564,-0.220633 c -0.170625,0.106395 0.204024,0.22326 0,0 z m -3.065376,0.02455 c -0.142216,-0.248644 -0.142216,0.248645 0,0 z m -1.550264,-0.288402 c -0.308541,-0.350791 -0.308541,0.35079 0,0 z m -4.42992,-3.914882 c -0.236767,-0.276221 -0.07504,0.391176 0,0 z m 6.021924,-4.737314 c -0.240252,-0.544725 -0.240216,0.544736 0,0 z m -6.043174,-0.811983 c -0.164651,0.162558 0.222756,0.353262 0,0 z m 5.94028,-1.242169 c -0.322102,-0.494026 0.09489,1.099433 0,0 z m -5.591474,-3.63894 c -1.59e-4,0.656858 -2.11e-4,0.871635 0,0 z m 0.110199,-3.075612 c 0.283938,-2.230683 -0.62111,1.219607 0,0 z M 20.561396,26.705351 c -0.421133,0.09323 0.39114,0.409739 0,0 z m -2.56432,-0.636008 c -0.295921,-0.364384 0.02916,0.387554 0,0 z m 3.053957,-0.29878 c -0.164283,0.147059 0.223959,0.280936 0,0 z m -0.802927,-0.148755 c 0.907184,-0.41108 -1.425365,0.175728 0,0 z m -0.803269,-0.244463 c -0.044,-0.64133 -0.438909,0.501303 0,0 z m 0.868175,-0.09378 c 2.146326,-1.215537 -2.82338,-2.502436 -2.213375,-4.292923 -0.97958,-0.195579 -0.640804,4.238317 1.529568,3.987823 l 0.331141,0.141665 z m -1.038263,-0.528192 c -0.08329,-0.662745 0.917046,-0.278092 0,0 z m 2.054591,0.534994 c -0.17062,0.106394 0.204001,0.223289 0,0 z m -2.560618,-0.45424 c -0.0018,0.314826 -0.0013,0.229588 0,0 z m -0.116931,0.08652 c -0.300222,-0.508619 -0.408301,0.324949 0,0 z m -0.313927,-0.166721 c -0.335687,-0.307616 -0.612682,0.405849 0,0 z m -0.5859,-5.751377 c -0.152879,-2.207028 -0.152876,2.207033 0,0 z m 4.845226,-0.657566 c -0.160258,-0.398632 -0.160261,0.398629 0,0 z m -0.331324,-0.173044 c -1.083561,-2.100133 -1.866541,1.107353 0,0 z m -5.829035,-0.726785 c -0.07709,-0.371904 -0.141788,0.394797 0,0 z m 5.863225,-4.273374 c -0.0029,0.33156 -0.0024,0.27796 0,0 z m -0.261584,-1.448447 c -0.296224,-1.8739471 -1.799637,-1.9016641 -0.796404,-0.02576 0.116484,0.304043 1.095692,0.840419 0.796404,0.02576 z m 0.120036,-0.352016 c -0.164312,0.147064 0.223992,0.280925 0,0 z M 21.775409,7.6701819 c 0.12501,-0.290606 -0.492883,0.529817 0,0 z m 3.105959,-1.166799 c -0.264286,-0.191134 -0.19741,0.289219 0,0 z m 7.544708,-2.687993 c -0.09773,-0.284322 -0.212745,0.173121 0,0 z m 6.905687,60.3380411 c 0.409823,0.001 0.671946,0.0016 0,0 z m 4.895899,-0.01801 c 2.109654,-0.08937 -1.386306,0.17586 0,0 z m 1.626611,0.0076 c 1.308568,-0.656961 5.37056,0.368297 1.754398,0.06391 -0.585265,-0.0025 -1.170633,-0.02099 -1.754398,-0.06391 z m 0.793046,-0.07289 c -0.28959,-0.565251 -0.816394,0.573382 0,0 z m 5.557661,0.0878 c 0.280926,-0.223991 0.147066,0.164313 0,0 z m -15.154309,-0.07064 c 0.223311,-0.203858 0.106578,0.169399 0,0 z m 17.248139,-0.02387 c 1.834639,-0.348335 -0.137765,0.418586 0,0 z m -18.411858,-0.06949 c 0.197423,-0.289144 0.264268,0.191064 0,0 z m 0.886849,0.02413 c 0.223309,-0.203854 0.106584,0.169401 0,0 z m 10.936367,0 c 0.22331,-0.203858 0.106578,0.1694 0,0 z m 5.740728,0.0017 c 0.280923,-0.223991 0.147063,0.164313 0,0 z m 2.88983,-0.02336 c 1.500248,-0.385923 -0.416435,0.258575 0,0 z m -20.882058,-0.04725 c 0.22331,-0.203856 0.106583,0.169401 0,0 z m 2.765182,-0.0017 c 0.331507,0.0033 0.277824,0.0027 0,0 z m 5.814271,0 c 0.331508,0.0033 0.277823,0.0027 0,0 z m 4.431826,-0.0025 c 0.935263,-0.165668 0.748573,0.169287 0,0 z m 8.614868,0.0034 c 0.314823,0.0018 0.229579,0.0013 0,0 z m -1.332438,-0.263774 c 0.385288,-0.901133 0.173643,0.805955 0,0 z m 2.119867,-0.107682 c -0.766662,-2.240527 -1.794022,-6.879117 -0.476188,-7.953101 -0.471747,2.714114 1.349959,5.451475 0.476188,7.953101 z M 58.08551,60.86477 c -0.0029,0.331558 -0.0024,0.277953 0,0 z m -10.154711,2.508281 c -0.36357,-0.280227 0.0934,-0.238159 0,0 z m 4.089298,-0.530775 c -0.572966,-0.807007 0.138513,-0.289961 0,0 z m 0.384809,-0.0576 c 0.673172,-0.594891 0.705605,0.496632 0,0 z m -9.288452,-0.04061 c -0.121814,-0.45836 0.260017,0.22668 0,0 z m 3.326168,0.0059 c -0.118288,-0.45878 0.423899,0.131285 0,0 z m 0.53006,-0.06924 c 0.05945,-0.317992 0.05945,0.317992 0,0 z m 8.208651,0.08756 c 1.023652,-0.657457 1.540149,0.358692 0,0 z M 37.830507,62.640394 c 0.157861,-0.143769 -0.05521,0.331772 0,0 z m 0.995342,0.03577 c -0.09999,-0.355844 0.232369,0.265264 0,0 z m 0.911842,0.01945 c 0.212104,-0.267042 0.212104,0.267042 0,0 z m -0.251429,-0.08402 c 0.158998,-0.292516 0.158998,0.292515 0,0 z m 4.682016,0.0017 c 0.914753,-0.239462 0.738644,0.231363 0,0 z m 7.759832,-0.324416 c 0.280925,-0.223992 0.147064,0.164312 0,0 z m 0.622958,-5.52e-4 c 0.406078,-0.930539 1.191922,0.402109 0,0 z m -16.967902,-0.0796 c -0.09613,-0.436307 0.350758,0.05317 0,0 z m 5.962317,7.81e-4 c -0.0818,-0.717324 1.469823,0.660463 0,0 z m 0.571045,-0.08241 c -0.158998,-0.292515 -0.158998,0.292515 0,0 z m 0.721839,0 0.07472,-0.0098 z m 0.468308,0.07757 c -0.169078,-0.403694 0.485482,0.09501 0,0 z m 0.916042,-0.07757 0.07472,-0.0098 z m 1.384351,0 0.07472,-0.0098 z m 4.214373,0.05922 c 0.250155,-0.276685 0.505025,0.37146 0,0 z m 3.602114,-0.02345 c 1.257449,-0.273421 4.531398,-0.04868 1.485069,0.104022 -0.497807,0.0043 -0.988184,-0.09191 -1.485069,-0.104022 z m -13.701641,-0.04647 c 0.42146,-0.01579 0.817028,-0.0306 0,0 z m 2.533049,0.0107 c 0.158998,-0.292515 0.158998,0.292515 0,0 z m 1.315132,0 c 0.308542,-0.35079 0.308542,0.350791 0,0 z m 0.899828,0 c 0.158998,-0.292515 0.158998,0.292515 0,0 z m 1.522785,0 c 0.383693,-0.363135 0.383693,0.363135 0,0 z m 0.346088,-1.245916 c 0.728776,-1.343615 0.618112,1.22791 0,0 z m -11.074802,0.06924 c 0.460743,-0.365821 0.460743,0.365821 0,0 z m 16.958291,-0.138437 c 0.234224,-0.327218 0.234224,0.327219 0,0 z m -0.899828,-0.346088 c 0.448269,-0.692052 0.567858,0.689936 0,0 z m 6.686895,-0.178698 c -0.25238,-1.060379 0.550309,-0.835635 0,0 z M 43.085573,59.912153 c 0.04673,-0.304677 0.434081,0.523604 0,0 z M 50.214977,59.2892 c 1.189314,-0.684322 1.097944,-0.04712 0,0 z m 1.38435,-0.212001 c 0.115487,-0.53144 1.121011,0.840094 0,0 z m 6.517375,0.0042 c 0.05947,-0.317998 0.05947,0.317998 0,0 z m -7.901725,-0.276874 c 0.540621,-0.668656 0.697275,0.73362 0,0 z m 7.90429,-0.311477 c 0.118559,-0.298922 -0.01376,0.473787 0,0 z m -7.90429,-0.657565 c 0.153094,-1.96041 0.153094,1.960409 0,0 z m -6.575664,-0.934391 c 0.238506,-0.438672 0.238506,0.438672 0,0 z m 14.41704,-0.622954 c 0.09038,-0.54268 0.0097,0.726797 0,0 z M 36.371474,56.035876 c -0.56775,-2.696847 0.745779,0.223598 0,0 z m 21.683933,-0.969051 c 0.05274,-0.558287 0.05272,0.558328 0,0 z m -7.771213,-0.380691 c 0.238505,-0.438671 0.238505,0.438672 0,0 z m 7.76842,-0.311485 c 0.05518,-0.437045 0.05515,0.437084 0,0 z m -15.503477,-0.04775 c 0.314823,0.0018 0.229581,0.0013 0,0 z m 15.510131,-0.817504 c 0.07712,-0.782227 0.01861,0.975916 0,0 z m 0.0077,-2.561046 c 0.02002,-2.505408 0.02213,2.479972 0,0 z m -1.622431,1.245916 c 0.16026,-0.39863 0.16026,0.398629 0,0 z M 30.07268,49.148783 c 0.238506,-0.438673 0.238506,0.438672 0,0 z m 4.607247,-2.63179 c 0.305398,-1.247927 0.796796,0.981975 0,0 z m 3.127811,0.197941 c 0.280923,-0.223992 0.147063,0.164312 0,0 z m 11.066664,-2.292718 c 0.212105,-0.267041 0.212105,0.267041 0,0 z m 9.116664,-1.364577 c 0.07253,-0.90227 0.02118,1.099849 0,0 z m -26.79345,-0.415305 c 0.100936,-0.42226 0.0015,0.601227 0,0 z m 26.791171,-0.622958 c 0.08289,-0.662439 0.01496,0.851611 0,0 z M 33.049034,41.500245 c 0.331946,-1.086477 0.17574,0.945077 0,0 z m -0.103827,-3.253223 c 0.744224,-0.401486 0.449901,0.362284 0,0 z m 25.112797,-0.657567 c 0.08289,-0.662438 0.01496,0.851606 0,0 z m -27.22393,-0.657566 c 0.282505,-0.595941 0.304088,0.560523 0,0 z m 27.227435,-0.899828 c 0.04599,-1.170677 0.04599,1.170677 0,0 z m -27.227435,0.415306 c 0.308537,-0.350688 0.308537,0.350687 0,0 z m 25.472044,-1.176699 c 0.282505,-0.59594 0.304086,0.560524 0,0 z m 0.55374,-1.66122 c -1.030992,-1.2955 0.905863,0.484315 0,0 z m 0.27687,-0.553741 c 0.282508,-0.595938 0.304085,0.560524 0,0 z m 0.917858,-0.326003 c -0.362728,-0.716944 0.389881,0.372329 0,0 z m -0.443878,-2.546947 c 0.871561,-3.327037 -1.264642,-6.846569 0.51919,-10.068785 1.397659,-2.468121 2.692149,-4.934225 3.826514,-7.532549 1.594663,-1.943537 -1.214669,3.102065 -0.941944,4.40844 -0.479934,1.647981 -0.432389,2.479412 0.918315,3.226652 0.104315,2.471805 -2.679242,4.206421 -1.343162,6.427762 -0.821497,2.545551 -1.653625,-0.590815 -2.155265,-0.915128 -0.310045,1.274916 -0.167733,5.224316 -0.816207,4.889094 l -0.0075,-0.435486 z m 2.571591,-4.464106 c -0.728792,-1.343607 -0.618095,1.22792 0,0 z m -38.484937,1.730437 c -0.544166,-0.247544 0.771927,0.193881 0,0 z m 40.063961,-0.1165 c 0.223295,-0.203961 0.106395,0.170527 0,0 z m 0.623335,-0.175456 c 0.277058,-0.235274 0.21777,0.177577 0,0 z m -0.623335,-0.0322 c 0.223295,-0.203961 0.106395,0.170528 0,0 z m 2.267084,-0.458709 c 0.200788,-0.468225 0.235246,0.207713 0,0 z m -45.39392,-0.164677 c -0.472853,-0.37688 0.508802,0.169868 0,0 z m 42.186827,-0.159939 c 0.05516,-0.437079 0.05517,0.437076 0,0 z m 3.844095,0.126775 c 0.296694,-0.40441 0.14562,0.214568 0,0 z m 0.292897,-0.126775 c 0.158996,-0.292436 0.158996,0.292437 0,0 z M 61.32066,26.197142 c 0.06669,-0.567135 0.469117,0.357948 0,0 z m 0.176771,-0.06319 c -0.158995,-0.292436 -0.158995,0.292437 0,0 z m 3.984457,-0.04893 c -0.02747,-0.299583 0.215418,0.405972 0,0 z m 0.168594,-0.02437 c 0.212745,-0.173121 0.09773,0.284323 0,0 z m 0.376621,-0.09592 c 0.742825,-0.553508 -0.09023,0.264494 0,0 z m 0.892366,-0.422169 c 0.05751,-0.363044 0.202388,0.262455 0,0 z m -2.276368,-0.4529 c -0.03198,-0.963802 0.503917,0.622052 0,0 z m 0.176771,-0.06319 c -0.158996,-0.292436 -0.158996,0.292437 0,0 z m 3.357048,0 c 0.180895,-0.305252 0.21306,0.322054 0,0 z m 0.357019,-0.176569 c -0.903221,-1.131584 0.5307,-0.998432 0,0 z m -7.797901,-0.06569 c 0.314054,-0.475078 0.314054,0.475078 0,0 z m 8.287644,-0.181633 c 0.350285,-0.329571 -0.03352,0.216541 0,0 z m -7.733904,-0.510539 c 0.893448,-1.018784 1.694275,-5.028022 2.07683,-4.31303 -0.366509,1.040271 -0.395716,5.094343 -2.07683,4.31303 z m 7.752362,0.353493 c 0.103819,-0.249712 0.332037,0.208602 0,0 z m 0.299942,-0.06509 c 0.18701,-0.443165 0.109064,0.295052 0,0 z m -0.217769,-0.661096 c -0.425038,-0.455215 0.404079,-0.084 0,0 z m -1.155045,-0.146442 c 0.668113,-0.985459 0.656038,0.129836 0,0 z m -4.46453,-0.346087 c 0.159623,-0.507627 0.159623,0.507626 0,0 z m 5.405548,-0.08493 c -0.581815,-1.246496 0.58612,0.540493 0,0 z M 68.4884,22.546182 c 0.187026,-0.690768 0.417747,0.585858 0,0 z m -2.768701,-0.357624 c 0.158996,-0.292437 0.158996,0.292436 0,0 z m 2.855222,0.02337 c -0.435829,-0.356106 0.424052,0.08664 0,0 z m -0.212916,-0.447802 c -0.96473,-0.429998 0.295047,-0.639104 0,0 z m -0.268651,-1.028363 c -0.766652,-1.289523 0.426035,0.278877 0,0 z m -38.94477,-0.43219 c -0.07534,-0.777907 0.683252,0.600063 0,0 z m -0.28276,-0.171253 c -0.02747,-0.299583 0.215418,0.405975 0,0 z m 0.09938,-0.193334 c 0.160261,-0.398629 0.160258,0.398632 0,0 z M 67.766069,19.81487 c 0.216395,-0.390937 -0.02496,0.280448 0,0 z m -0.06512,-0.293865 c -0.349712,-0.649337 0.286315,0.175969 0,0 z M 67.490487,19.01384 c -0.19159,-0.407042 0.272329,0.09888 0,0 z m -0.06641,-0.323445 c -0.349712,-0.649337 0.286315,0.175969 0,0 z m -11.325618,-0.03193 c 0.414487,-0.491711 0.06726,0.276367 0,0 z m 11.005585,-0.557826 c 0.212745,-0.173121 0.09773,0.284323 0,0 z m -9.552011,-0.238173 c 0.160258,-0.398631 0.160261,0.398629 0,0 z m 9.275146,-0.796002 c 0.140111,-0.287505 0.09908,0.270298 0,0 z m -0.245107,-0.904433 c -0.100022,-0.355827 0.232386,0.265238 0,0 z M 27.650068,14.29776 c 0.158996,-0.292436 0.158996,0.292436 0,0 z m 37.723543,-0.484523 c 0.140111,-0.287505 0.09908,0.270298 0,0 z m 0.23723,-0.163966 c -0.695643,-0.884181 0.44158,0.140962 0,0 z m -0.274685,-0.740467 c -0.100024,-0.355828 0.232387,0.265233 0,0 z m -4.173884,-0.341483 c 0.05945,-0.317998 0.05945,0.317999 0,0 z m 4.003687,0.06513 c 0.212745,-0.17312 0.09773,0.284323 0,0 z m -0.241771,-0.618079 c 0.212403,-0.168022 0.174051,0.293105 0,0 z M 24.466063,11.667494 c 0.158996,-0.292436 0.158996,0.292436 0,0 z m 0.553739,-0.207653 c -1.030988,-1.295499 0.905863,0.484319 0,0 z M 61.360055,11.33871 c 0.20009,-0.667424 0.07435,1.002259 0,0 z m -25.81919,-0.986349 c 0.540634,-0.6686611 0.697259,0.733602 0,0 z M 51.876197,9.9370549 c -1.467048,-1.599192 -4.829419,-1.330406 -2.227227,-3.803725 1.08419,-1.337131 0.101784,-3.828483 2.367117,-2.034644 3.004954,1.538431 6.846045,1.672796 9.433776,3.73845 1.366501,3.4538411 -3.445818,0.201733 -5.035695,0.671326 -2.088645,-0.631404 -3.227785,1.2048 -4.468697,1.6622761 l -0.06927,-0.2336781 z m 8.306102,-2.837918 c -0.432484,-0.489217 -0.180758,0.274426 0,0 z m -1.42784,-0.568109 c -0.295062,-0.301249 -0.23103,0.307315 0,0 z m -1.722047,-0.538578 c -0.212404,-0.168022 -0.174053,0.293106 0,0 z m -1.383861,-0.554533 c -0.276479,-0.412067 -0.05478,0.24121 0,0 z m -2.388003,-0.842147 c -0.174214,-0.264289 -0.203119,0.280935 0,0 z m -16.335333,5.272069 c 0.308537,-0.350688 0.308537,0.3506871 0,0 z M 19.493773,9.7503099 c 0.359266,-0.319111 0.03407,0.3559181 0,0 z m 22.305708,-0.445221 c 0.179106,-0.307623 0.398697,0.464723 0,0 z m 0.764114,0.0044 0.0973,-0.06099 z m -2.770193,-0.25639 c 0.199255,-0.262526 0.216867,0.167453 0,0 z m -1.09459,-0.330029 c -0.275008,-0.534299 0.272842,0.230959 0,0 z m 7.138157,-0.07777 c 0.280937,-0.223958 0.147058,0.164284 0,0 z m 1.735677,-0.529663 c 0.727892,-1.275954 0.10537,0.868069 0,0 z m -10.780402,-0.09372 c -0.572061,-0.79896 0.14058,-0.287033 0,0 z m 25.056739,-0.132559 c 0.157816,-0.14386 -0.05509,0.331745 0,0 z M 37.870472,2.5281289 c 3.477909,0.64835 7.782183,-0.667653 10.74379,0.366221 0.140689,3.658156 -5.204805,4.710537 -8.13598,4.484213 -2.104744,-0.23462 -7.245192,-3.181999 -4.731275,-4.915106 0.602143,9.77e-4 1.562468,-0.135559 2.123465,0.06467 z m 23.626959,5.078604 c -1.553715,-0.706376 0.486198,-0.03529 0,0 z m -12.621265,-4.69173 c 0.141189,-0.353546 0.08158,0.540076 0,0 z"
       id="path36127"
       sodipodi:nodetypes="ccccccccccccccccccccccccccccsscccccccccccccccccccccccccccccccccccccccccccccccccccccccccccccccccccccccccccccccccccccccccccccccccccccccccccccccccccccccccccccccccccccccccccccccccccssccccccccccccccccccccccccccccccccccccccccccccccccccccccccccccccccccccccccccccccccccccccccccccccccccccccccccccccccccccccccccccccccccssccccccsscccccccccccccccccccccccccccccccccccccccccccccccccccccccccccccccccccccccccccccccccccccccccccccccccccccccccccccccccccsscccccssccccccccccccccccc" /><g
       clip-path="url(#clip0_200_4114-9)"
       id="g35797"
       transform="matrix(0.13072112,0,0,0.13072112,30.699099,16.12386)"><path
         d="M 165.88,64 H 7.65125 C 3.85713,64 0.765625,60.9291 0.765625,57.1603 V 6.90949 C 0.765625,3.07088 3.85713,0 7.65125,0 H 165.88 c 3.794,0 6.886,3.07088 6.886,6.8397 v 50.2508 c 0,3.8386 -3.092,6.9095 -6.886,6.9095 z"
         fill="#2600ff"
         id="path35767" /><path
         d="m 51.1431,42.9225 c 1.4052,0 2.3889,0.349 3.0213,1.0469 0.6323,0.698 0.9134,1.9542 0.9134,3.6991 0,1.7448 -0.3514,3.001 -1.054,3.699 -0.7026,0.6979 -1.9673,1.0469 -3.7941,1.0469 -0.3513,0 -1.616,-0.0698 -2.5294,-0.1396 -0.6323,-0.0698 -1.1944,-0.5584 -1.1944,-1.2563 v -9.9106 c 0,-0.6281 0.4918,-1.0469 1.0539,-1.0469 0.6323,0 1.0539,0.4886 1.0539,1.0469 v 2.373 c 0.9837,-0.4188 1.8268,-0.5584 2.5294,-0.5584 z m -0.9836,7.6772 c 1.0539,0 1.7565,-0.2093 2.1781,-0.6979 0.3513,-0.4885 0.562,-1.2563 0.562,-2.3031 0,-1.0469 -0.1405,-1.8844 -0.4215,-2.3032 -0.2811,-0.4188 -0.7729,-0.6979 -1.4755,-0.6979 -0.6324,0 -1.2647,0.0698 -1.9673,0.2791 l -0.3513,0.0698 v 5.5137 c 0.7026,0.1396 1.1944,0.1395 1.4755,0.1395 z"
         fill="#ffffff"
         id="path35769" /><path
         d="m 57.6777,43.1318 c 0.4919,0 0.8432,0.2792 0.9837,0.7678 l 1.897,6.4907 c 0.0703,0.2792 0.5621,0.2792 0.6324,0 l 1.8971,-6.4907 c 0.1405,-0.4188 0.5621,-0.7678 0.9836,-0.7678 0.7026,0 1.1945,0.6282 0.9837,1.3261 l -3.232,10.9575 c -0.1406,0.4187 -0.4919,0.6979 -0.9837,0.6979 -0.7026,0 -1.1944,-0.6979 -0.9837,-1.3261 l 0.7729,-2.3729 h -0.4216 c -0.7728,0 -1.4754,-0.4886 -1.6862,-1.2563 l -1.9673,-6.7699 c -0.0703,-0.6281 0.4215,-1.2563 1.1241,-1.2563 z"
         fill="#ffffff"
         id="path35771" /><path
         d="m 88.8733,50.53 0.5621,-0.0698 v 0.4188 c 0,0.6281 -0.4216,1.1166 -1.054,1.1864 -1.1241,0.1396 -2.1078,0.2792 -3.0212,0.2792 -1.4755,0 -2.5294,-0.349 -3.232,-1.1167 -0.6324,-0.7677 -0.9837,-1.9542 -0.9837,-3.5594 0,-3.2105 1.4755,-4.8157 4.3562,-4.8157 2.8105,0 4.2157,1.3958 4.2157,4.1876 -0.0702,0.8375 -0.7729,1.3958 -1.5457,1.3958 h -4.7778 c 0,0.7677 0.2108,1.3261 0.5621,1.675 0.3513,0.349 0.9836,0.5584 1.9673,0.5584 0.9837,0 1.9673,-0.0698 2.951,-0.1396 z m -1.1945,-3.5594 c 0,-0.9073 -0.1405,-1.5355 -0.4918,-1.8844 -0.281,-0.349 -0.8431,-0.5584 -1.616,-0.5584 -0.7729,0 -1.2647,0.2094 -1.616,0.5584 -0.3513,0.3489 -0.4918,0.9771 -0.5621,1.8844 z"
         fill="#ffffff"
         id="path35773" /><path
         d="m 99.8338,50.53 v 0.4886 c 0,0.5583 -0.4215,1.0469 -0.9836,1.1167 -1.1242,0.1395 -2.1781,0.2791 -3.0915,0.2791 -1.4755,0 -2.5295,-0.3489 -3.2321,-1.1167 -0.6323,-0.7677 -0.9836,-1.9542 -0.9836,-3.5594 0,-3.2105 1.4755,-4.8157 4.3562,-4.8157 2.8104,0 4.2158,1.3959 4.2158,4.1876 -0.07,0.8375 -0.773,1.3958 -1.5459,1.3958 h -4.7778 c 0,0.7678 0.2108,1.3261 0.5621,1.6751 0.3513,0.3489 0.9837,0.5583 1.9673,0.5583 0.9134,-0.0698 3.5131,-0.2094 3.5131,-0.2094 z M 98.007,46.9706 c 0,-0.9073 -0.1405,-1.5355 -0.4918,-1.8844 -0.2811,-0.349 -0.8431,-0.5584 -1.616,-0.5584 -0.7729,0 -1.2647,0.2094 -1.616,0.5584 -0.3513,0.3489 -0.4919,0.9771 -0.5621,1.8844 z"
         fill="#ffffff"
         id="path35775" /><path
         d="m 109.882,45.9237 v 4.1178 c 0,0.2791 0.07,0.4885 0.211,0.5583 0.14,0.0698 0.351,0.2094 0.632,0.2792 v 0.4187 c 0,0.6282 -0.562,1.1167 -1.194,0.9771 -0.633,-0.0698 -1.125,-0.2791 -1.476,-0.5583 -1.054,0.4188 -2.178,0.6979 -3.232,0.6979 -1.967,0 -3.021,-0.9771 -3.021,-2.8615 0,-0.9073 0.281,-1.6052 0.843,-2.024 0.562,-0.4187 1.405,-0.6281 2.529,-0.7677 l 2.6,-0.2094 v -0.6281 c 0,-0.4886 -0.141,-0.8375 -0.351,-1.0469 -0.211,-0.2094 -0.562,-0.2792 -1.054,-0.2792 -0.843,0 -1.968,0.0698 -3.232,0.1396 l -0.633,0.0698 v -0.5583 c 0,-0.4886 0.281,-0.9073 0.773,-1.0469 1.124,-0.2094 2.178,-0.2792 3.162,-0.2792 1.194,0 2.108,0.2094 2.67,0.6979 0.492,0.4886 0.773,1.2563 0.773,2.3032 z m -4.497,2.2334 c -0.913,0.0698 -1.405,0.5583 -1.405,1.3958 0,0.8375 0.421,1.2563 1.194,1.2563 0.703,0 1.406,-0.0698 2.108,-0.2792 l 0.351,-0.1396 v -2.4427 z"
         fill="#ffffff"
         id="path35777" /><path
         d="m 113.887,52.4144 c -0.632,0 -1.124,-0.4885 -1.124,-1.0469 V 44.458 c 0,-0.7677 0.281,-1.326 1.054,-1.326 0.913,0 1.124,0.5583 1.124,0.5583 0.983,-0.4885 1.827,-0.7677 2.599,-0.7677 1.195,0 2.038,0.2792 2.53,0.9073 1.194,-0.6281 2.459,-0.9073 3.654,-0.9073 1.194,0 2.037,0.349 2.529,0.9771 0.492,0.6979 0.773,1.8146 0.773,3.4199 v 4.0479 c 0,0.6282 -0.492,1.0469 -1.054,1.0469 -0.632,0 -1.054,-0.4885 -1.054,-1.0469 v -3.9782 c 0,-0.9771 -0.141,-1.675 -0.351,-2.0937 -0.211,-0.4188 -0.703,-0.6282 -1.406,-0.6282 -0.632,0 -1.264,0.1396 -1.967,0.349 l -0.351,0.1396 c 0.14,0.2094 0.14,1.0469 0.14,2.3031 v 3.9084 c 0,0.6282 -0.421,1.0469 -1.054,1.0469 -0.632,0 -1.124,-0.4885 -1.124,-1.0469 v -3.8386 c 0,-1.0469 -0.14,-1.8146 -0.351,-2.2333 -0.211,-0.4188 -0.703,-0.6282 -1.405,-0.6282 -0.703,0 -1.265,0.1396 -1.897,0.349 l -0.281,0.1396 v 6.2115 c 0.14,0.6282 -0.352,1.0469 -0.984,1.0469 z"
         fill="#ffffff"
         id="path35779" /><path
         d="m 71.6598,41.3174 c 0.5621,0 0.9837,0.3489 1.054,0.7677 l 2.3186,8.1657 c 0.1405,0.349 0.6323,0.349 0.7729,0 l 2.1781,-8.2355 c 0.1405,-0.4886 0.562,-0.7677 1.0539,-0.7677 0.7026,0 1.1944,0.6979 1.0539,1.326 l -2.2484,8.5147 c -0.2108,0.7678 -0.9134,1.2563 -1.6862,1.2563 h -1.2647 c -0.7729,0 -1.4755,-0.4885 -1.6863,-1.2563 l -2.4592,-8.5147 c -0.281,-0.5583 0.2108,-1.2562 0.9134,-1.2562 z"
         fill="#ffffff"
         id="path35781" /><path
         d="m 72.2218,30.1505 c -0.9837,0 -1.7565,0.7677 -1.7565,1.8146 0,0.5583 0.2107,1.0469 0.4918,1.3959 0.3513,0.3489 0.7729,0.4885 1.1944,0.4885 h 9.134 c 3.4429,0 5.9723,-2.4427 5.9723,-5.7928 0,-3.3501 -2.5997,-6.0022 -5.902,-6.0022 h -5.6209 c -1.4755,0 -2.4592,-0.8375 -2.4592,-2.0938 0,-1.326 0.9837,-2.1635 2.4592,-2.1635 h 9.0637 c 1.1242,0 1.7566,-0.9771 1.7566,-1.8844 0,-1.0469 -0.7729,-1.8147 -1.7566,-1.8147 h -9.134 c -3.4428,0 -5.9722,2.5126 -5.9722,5.8626 0,3.2803 2.5997,5.7928 5.9722,5.7928 h 5.5507 c 1.4755,0 2.4591,0.9073 2.4591,2.3032 0,1.3261 -0.9134,2.1636 -2.4591,2.1636 h -8.9935 z"
         fill="#ffffff"
         id="path35783" /><path
         d="m 108.056,15.8432 c 0,0.9771 -0.914,1.8146 -1.968,1.8146 h -3.372 -2.108 v 14.2377 c 0,1.0469 -0.9135,1.9542 -1.9674,1.9542 -1.0539,0 -1.9673,-0.9073 -1.9673,-1.9542 V 17.6578 h -1.7565 -3.7239 c -1.0539,0 -1.9673,-0.8375 -1.9673,-1.8146 0,-0.9771 0.9134,-1.8146 1.9673,-1.8146 h 3.7239 3.1617 0.2108 4.3567 3.372 c 1.195,0 2.038,0.8375 2.038,1.8146 z"
         fill="#ffffff"
         id="path35785" /><path
         d="m 128.009,32.1049 c 0,0.9771 -0.913,1.8146 -1.967,1.8146 h -3.443 -3.302 -0.352 -2.389 -0.351 -0.913 c 0,0 -1.335,0 -1.827,-0.2094 -0.351,-0.1396 -0.632,-0.2093 -0.913,-0.4187 -0.984,-0.6282 -1.617,-1.7448 -1.687,-3.0011 v -0.1396 -0.4188 -0.7677 -2.1636 -1.1864 c 0,-1.3261 0.633,-2.4428 1.687,-3.0709 0.281,-0.2094 0.632,-0.2792 0.913,-0.4188 0.492,-0.2093 1.827,-0.1396 1.827,-0.1396 h 0.913 0.351 2.389 0.352 3.302 3.443 c 1.054,0 1.967,0.8376 1.967,1.8147 0,0.9771 -0.913,1.8146 -1.967,1.8146 h -3.443 -3.302 -0.352 -2.389 -0.702 c -0.703,0 -1.265,0.2093 -1.265,1.0469 v 2.5823 c 0,0.6979 0.703,1.0469 1.265,1.0469 h 0.702 2.389 0.352 3.302 3.443 c 1.054,0 1.967,0.7677 1.967,1.8146 z m -2.038,-18.0763 h -3.372 -3.302 -0.352 -2.389 -3.723 c -1.054,0 -1.968,0.8375 -1.968,1.8146 0,0.9771 0.914,1.8146 1.968,1.8146 h 3.723 2.389 0.352 3.372 3.373 c 1.054,0 1.967,-0.8375 1.967,-1.8146 -0.07,-0.9771 -0.913,-1.8146 -2.038,-1.8146 z"
         fill="#ffffff"
         id="path35787" /><path
         d="m 28.0977,15.9828 v 6.5605 2.7917 6.5605 c 0,1.0469 -0.9134,1.9542 -1.9673,1.9542 -1.0539,0 -1.9673,-0.9073 -1.9673,-1.9542 V 25.335 22.5433 15.9828 c 0,-1.0469 0.9134,-1.9542 1.9673,-1.9542 1.0539,0 1.9673,0.9073 1.9673,1.9542 z"
         fill="#ffffff"
         id="path35789" /><path
         d="m 34.7019,23.939 7.518,-6.4209 c 0.7026,-0.6281 0.9837,-1.675 0.4918,-2.5125 -0.6323,-1.1167 -2.1078,-1.3261 -3.0212,-0.5584 l -10.3987,8.9335 c -0.3513,0.2792 -0.3513,0.7677 0,1.0469 l 10.3284,8.8637 c 0.7026,0.6281 1.8268,0.6979 2.5294,0.1396 0.9837,-0.7678 0.9837,-2.2334 0.0703,-3.0011 z"
         fill="#ffffff"
         id="path35791" /><path
         d="m 149.44,15.9828 v 14.2377 c 0,2.2334 -1.054,3.699 -3.022,3.699 -2.107,0 -2.88,-1.2563 -3.724,-2.4427 l -7.939,-12.5627 v 13.0512 c 0,1.0469 -0.913,1.8844 -1.967,1.8844 -1.054,0 -1.968,-0.8375 -1.968,-1.9542 V 17.7276 c 0,-2.0938 1.476,-3.699 3.373,-3.699 1.335,0 2.529,0.9771 3.232,1.9542 0.07,0.1395 8.15,12.9116 8.15,12.9116 V 15.913 c 0,-0.698 0.703,-1.8146 1.968,-1.8146 0.983,0 1.897,0.8375 1.897,1.8844 z"
         fill="#ffffff"
         id="path35793" /><path
         d="M 67.3735,30.7788 60.6284,16.6807 c -0.6323,-1.675 -1.8971,-2.6521 -3.8644,-2.6521 -1.616,0 -3.0212,0.8375 -3.7941,2.6521 l -6.6748,13.819 c -1.335,2.4427 0.9134,3.35 1.5457,3.2802 0.7729,0 1.4755,-0.4885 1.8268,-1.2562 0.2811,-0.6282 1.7566,-3.6991 1.7566,-3.6991 h 5.3398 c 1.0539,0 1.8268,-0.9073 1.8268,-1.9542 0,-1.0469 -0.8431,-1.9542 -1.8268,-1.9542 h -3.513 l 3.0915,-6.2813 v -0.0698 c 0.0702,-0.2094 0.2107,-0.349 0.281,-0.4188 0.0703,0 0.2108,0 0.2811,0 0.1405,0.0698 0.281,0.2792 0.3513,0.4886 l 6.6748,13.8888 c 0.281,0.5583 1.4052,1.8146 3.0212,0.8375 0.7729,-0.4886 0.9837,-1.6053 0.4216,-2.5824 z"
         fill="#ffffff"
         id="path35795" /></g></g></svg>
